<svg xmlns="http://www.w3.org/2000/svg" width="1024" height="1024" viewBox="0 0 1024 1024">
<style>
  @keyframes drop-piercings {
   0% {
     transform: rotate(15deg);
     opacity: 0;
    }
  }

  @keyframes hang-piercings {
   0% {
     transform: rotate(var(--rotate));
    }
  }

  @keyframes stroke-border {
    0% {
      stroke-dashoffset: var(--dash);
      opacity: 1;
    }
    71% {
      stroke-dashoffset: 0em;
      opacity: 1;
    }
  }

  @keyframes show {
    0% {
      opacity: 0;
    }
  }

  @keyframes drop-dots {
   0% {
     transform: scale(0.9);
     opacity: 0;
    }
  }

  #logo, #logo *, circle {
    transform-box: fill-box;
    transform-origin: center;
    animation-duration: 5s;
    animation-fill-mode: both;
    animation-timing-function: cubic-bezier(0.47, 0, 0.745, 0.715);
  }
  :root {
   --dash: 57em;
   --rotate: 15deg;
  }

  #logo-piercings {
   animation-name: drop-piercings;
   animation-duration: 0.7s;
   transform-origin: center 5em;
  }
  #logo-piercing-bottom {
   animation-name: hang-piercings;
   animation-duration: 1.7s;
   animation-delay: 0.3s;
   animation-iteration-count: infinite;
   animation-direction: alternate;
   animation-timing-function: ease-in-out;
   transform-origin: top;
   transform: rotate(calc(-1 * var(--rotate)));
  }
  #logo-cross-border {
   stroke-dasharray: var(--dash);
   opacity: 0;
   animation-name: stroke-border;
   animation-duration: 2.4s;
   animation-delay: 0s;
  }
  #logo-cross {
   animation-name: show;
   animation-duration: 0.7s;
   animation-delay: 1s;
  }
  #logo-dots-in,
  #logo-dots-out {
   animation-name: drop-dots;
   animation-duration: 0.3s;
   animation-delay: 1s;
  }
  #logo-dots-out {
   animation-delay: 1.2s;
  }
</style>
<g id="logo" fill="var(--main,#fdc31e)">
  <g id="logo-dots">
    <g id="logo-dots-in">
      <circle cx="323" cy="299.7" r="9.5"/>
      <circle cx="702.5" cy="299.7" r="9.5"/>
      <circle cx="321.6" cy="724" r="9.5"/>
      <circle cx="701.1" cy="724" r="9.5"/>
    </g>
    <g id="logo-dots-out">
      <circle cx="993.6" cy="512" r="13.4"/>
      <circle cx="30.4" cy="512.4" r="13.4"/>
      <circle cx="510.9" cy="1010.6" r="13.4"/>
      <circle cx="513.7" cy="13.4" r="13.4"/>
    </g>
  </g>
  <g id="logo-piercings">
    <path id="logo-piercing-top" d="M492.5 412.4c-5.3-.1-10.9 2.8-12.4 8.6-2.1 6-6.1 8-10.1 10-33.5 18.8-37.5 72.4-2 95 14 8.7 36.6 15.6 58.2 3a56.5 56.5 0 0 0 26.8-67c-1-2-1-4 1-7 3.2-4 2-12-1-16-9.2-11.5-24.6-3.8-25 7.9-.9 6 3.1 12.1 9 14 3 1 4 2.1 5 5 7.4 20.7-5.5 39.6-10.9 45.1-20.6 21-51.3 14.3-67-4a43.6 43.6 0 0 1 5-61c4.9-4 10-10 19-6 7 4 15-1 18-9 2.3-8.2-3.7-17.9-13.6-18.6z"/>
    <path id="logo-piercing-bottom" d="M464 542a54.7 54.7 0 0 0 41 60c5 1 9.3 2.6 13 6 7.6 7 23.2-.8 22-13-.8-9.4-16.4-19.6-26-6-1.6 2.3-2.8 2.9-6 2a44.5 44.5 0 0 1-32.9-44c.7-33.3 35.6-48 56-41 7.5 2.7 23.2 9.1 30 29 1.3 4 2 8-3.1 12-14.1 10.2 3.2 32.9 18 22 6.4-4.7 7-16 1-21-2-1.7-2.5-4.4-3-7a56.6 56.6 0 0 0-17-33c-27.3-26-85.6-20.3-93 34Z"/>
  </g>
  <g id="logo-cross">
    <path d="M851 504c0-4 1-5 4-7 14-5 27-3 39 4l15 8c7 3 7 3 1 5-11 5-21 12-33 15l-7 1-15-3c-3-2-4-3-4-7 2-5 2-11 0-16m88 14c-13 5-24 14-37 19-8 2-16 6-24 7-11 2-21 0-30-6-3-2-3-4-1-6 1-3 2-4 5-3 16 8 31 5 45-4l21-10c1-1 3-1 3-3s-2-2-3-3l-26-13c-13-6-26-7-39-1-3 1-5 0-6-2-2-3-1-5 1-7l3-2c7-2 13-5 20-4 9 0 17 2 24 5 16 5 29 15 44 22 13 5 16 4 0 11m-40 38c-3 7-7 11-14 13-4 0-6 3-7 6-3 6-14 13-20 13-3 0-4-2-4-4 1-11-3-22-8-31-1-2-4-6-3-7s4 2 5 3c16 7 31 5 46 1 2-1 5-2 6 0 2 2 0 4-1 6m-53-84c5-10 10-21 9-33-1-5-1-5 5-3 6 3 14 5 18 13 1 3 3 5 7 6 7 2 12 7 15 13 1 2 3 6 2 7h-7c-11-4-23-6-34-3l-12 3c-1 1-5 4-6 3s2-5 3-6m-12 60c-1 1-3 2-5 0-6-7-15-12-23-18-3-2-2-3 0-4l23-17c3-2 4-2 6 1 5 5 6 11 8 18-2 7-3 14-9 20m-193-5c-11 9-19 20-27 32-7 10-13 21-16 33l-1 11c-1 3-2 4-5 5-13 0-25 7-35 15-16 12-28 28-38 45l-6 11c-1 3-3 3-4 0-3-8-7-14-12-20-8-13-18-24-29-34-8-7-17-13-27-15l-10-2c-4 0-5-2-6-5 0-20-11-36-22-52-7-10-15-19-25-26-4-4-5-12-1-16 11-11 22-22 31-35 8-13 17-27 17-44 0-3 1-6 5-6 13 0 24-6 33-14 12-9 23-19 31-32 5-7 11-15 14-23 1-2 1-4 3-4s2 2 3 3c7 15 16 28 27 40 12 13 25 24 42 29l9 1c3 0 4 2 5 5 1 18 9 33 19 47 8 12 18 22 28 32 3 3 4 6 4 9 1 6-4 8-7 10M528 836l4 3-3 2c-9 4-16 18-16 18l-2 4c-2-3-9-17-16-21l-5-3 5-5c5-4 10-10 13-17l3-5 3 5c3 7 8 14 14 19m20 8c14 5 26 12 33 26 5 11 15 17 25 23 2 1 4 1 4 3-1 3-3 2-5 2h-4c-14-1-27-5-39-13-3-3-5-2-8 0-7 6-16 7-25 2-7-3-13-14-12-23s6-16 15-19c5-2 11-2 16-1m3 92c-16 5-26 16-34 30-6 10-6 10-13 0-5-8-11-15-17-21-5-5-11-6-17-9-13-5-22-22-19-35 2-6 6-9 10-12 3-2 4 2 6 3 2 0 4 2 3 4-1 5-1 9 1 13 3 7 8 12 16 12 2 0 4 1 5 3 1 3 3 6 6 7l11 12 2 4 2-4c1-4 6-8 9-11l5-4c3-2 3-5 4-6 2-2 4-2 9-4 3-1 15-10 11-20-2-4 2-6 4-8 3-2 5-1 7 1 7 3 9 9 9 16 0 12-9 25-20 29m-46-55c4-6 8-5 11 0 6 9 15 13 25 14 6 0 7 2 7 7 0 9-12 18-21 16v2c0 5-2 6-4 8-4 3-8 6-10 10l-2 2-2-2-11-10c-4-3-5-11-5-11s-8 2-11 0c-7-3-10-11-9-18 1-3 2-4 5-4 12 0 21-5 27-14m-91 17c-1 0-3 0-3-2s1-2 3-2c13-7 23-16 31-30 7-14 21-18 36-21 10 0 17 5 21 13s3 17-3 25c-9 10-22 13-33 4-2-2-4-2-8 0a67 67 0 0 1-44 13m81-710-3-3 4-2c7-4 12-9 15-18l2-5 3 5c2 7 8 13 14 18l4 3-4 3c-6 5-10 11-14 18l-3 5-2-5c-4-7-10-13-16-19m-16-8c-9-2-17-5-24-11-5-4-8-8-11-13-5-10-12-16-21-21l-7-4-8-3a43 43 0 0 1 14-3c15 2 27 5 38 14 4 3 7 2 10 0 11-7 20-6 29 1 8 7 10 19 6 28-5 10-15 14-26 12m-2-93c11-4 18-12 25-21 4-4 6-9 9-13 2-4 4-3 6 0 5 9 11 17 19 25 3 4 8 6 12 8 14 5 23 14 25 28 2 8-2 16-8 20-3 2-6 1-8-1-3-1-3-3-2-6 2-11-5-22-17-24-3 0-5-1-6-4s-4-5-6-7c-4-2-8-6-10-10l-2-5-2 5c-4 8-15 11-19 20l-4 1c-11 2-18 11-16 23 0 3 1 5-3 7-3 3-6 2-9 0-6-4-7-7-7-16-1-13 9-26 23-30m29 6 8-8 7 8c6 3 10 8 9 16 8-6 19 0 21 9v6c0 4-2 6-6 6-11-1-20 4-26 13-4 6-8 6-12 0-6-9-14-14-25-13-4 0-5-2-6-5-2-10 7-23 21-17-1-8 4-12 9-15m99 33h5l3 2c0 2-1 2-2 3-8 4-16 8-22 15l-8 12c-7 14-25 22-39 23-11 0-18-6-21-16-3-9 1-20 8-25 9-7 19-8 28-1 3 2 6 2 10 0 11-9 24-12 38-13m58 561c4 9 6 18 5 25 0 22-6 40-13 58l-4 9c-1 3-3 3-4 0-9-20-13-40-5-62 4-11 9-21 15-31 3-3 4-3 6 1m12-13c23-8 44-5 66 6 10 5 20 10 30 17 1 0 3 1 3 3-1 2-3 2-5 2l-29 2c-15 1-29-4-42-9-9-4-18-7-25-14-3-4-3-5 2-7m-308 14c10 16 17 34 17 53 0 11-2 21-6 31l-3 7c-1 3-3 3-4 0-6-14-11-28-14-43-1-6-3-12-2-18-2-10 0-20 4-29 0-2 1-5 4-5 2 0 3 3 4 4m-17-8c-10 11-25 15-39 20-12 4-24 3-38 3l-20-1c-1 0-3 0-4-2a237 237 0 0 1 44-25c14-5 28-8 42-4l14 3c4 2 4 3 1 6M217 515c-8 5-16 10-22 17-2 2-4 1-6-1-4-5-6-12-8-19 2-7 4-13 8-18 2-3 4-3 6-1 7 6 14 12 22 16 3 2 4 4 0 6m-37-39-5-1c-7-3-15-5-23-5s-15 3-23 5c-2 0-4 1-5-1-2-1-1-3 0-5 3-7 8-11 15-14 4-1 6-3 8-7s14-12 20-12c2 0 3 2 3 4a66 66 0 0 0 10 36m-2 76-7 16-2 15c-1 5 1 6-5 4s-14-4-18-12c-2-4-5-6-9-7-7-2-11-7-13-13-1-2-2-4 0-5 2-2 3-1 5 0 13 3 26 5 39 2l7-3 4-1-1 4m-5-31c0 3-1 5-4 6-9 3-19 4-29 0-9-3-17-8-26-12l-5-3 5-2c10-5 19-11 30-14 3-2 6-2 10-2 5 0 11 2 16 4 3 1 3 2 3 5-2 6-2 12 0 18m-68 8-24-14c-6-3-6-3 0-6 11-6 22-14 34-18 13-6 26-12 41-11 7 0 13 2 19 5 2 2 5 3 3 7s-4 4-7 3c-15-7-28-5-41 3l-24 11c-4 2-3 4 0 6 13 5 24 13 38 17 9 3 18 1 27-2 2-1 5-3 6 1 1 3 2 5-2 8a44 44 0 0 1-40 2c-10-4-21-6-30-12m256-191c-3-8-5-17-5-25 0-16 3-32 9-47l7-20c1-1 1-3 3-3s2 2 2 3c5 12 10 24 9 37 0 21-8 39-19 55-2 3-5 3-6 0m-10 11c-9 5-19 6-30 6-15 1-29-6-42-13-9-4-18-10-26-15l-3-2c1-2 2-2 3-2 16-2 32-5 48-1 15 3 30 8 43 16l8 7c3 2 2 3-1 4m289-61c-1-11 2-22 5-33l4-10 2-2 2 2c9 21 16 42 17 65 0 9-1 18-6 27-1 4-3 4-6 1-10-15-16-32-18-50m34 54c5-5 12-9 19-11 16-6 32-12 49-10 10-1 19 1 29 2 1 0 3-1 4 1 0 2-2 2-3 3-15 8-30 17-47 22s-34 4-51-3c-3-1-2-2 0-4m283 163c-15-7-28-17-44-24l-2-4c1-14-6-22-18-29l-5-4c-7-10-17-16-28-17-7-1-9-4-12-9-5-8-12-14-22-17-18-3-33 2-46 14-5 4-9 10-10 17-1 15 10 23 21 27 4 1 8 1 11-2 2-1 3-3 2-6s-3-3-6-2l-7-1c-11-5-13-17-4-26 7-7 16-11 26-12 11-1 21 5 26 15 7 15 4 29-4 43-5 11-14 19-22 26-10 8-20 13-33 12H670c-5 0-9-2-13-5-19-13-32-31-42-52-4-8-7-17-6-27 0-2 0-4 2-6l51-59c3-4 6-4 10-3 10 5 21 7 31 7 18 0 34-7 50-15 12-6 23-15 36-19 3-1 5-2 5-5-1-3-3-3-6-3l-24-3c-30-4-59 1-86 16-1 1-2 2-3 1v-4c3-13 2-25 0-38-3-21-13-41-20-61-1-2-2-4-5-4-2 0-3 2-3 4l-8 22-5 16c-4 28 4 53 21 75 3 4 3 6 0 9l-50 59c-2 2-3 2-5 2-13 0-24-5-33-13-18-14-32-31-44-50-4-6-6-11-1-18 4-7 9-13 16-18 9-6 19-9 29-15 8-5 16-11 21-20 5-11 2-24-10-29-8-4-16-3-25 1-7 3-10 9-11 16-1 4 3 8 6 8 4 0 6-2 7-6 2-9 10-12 18-9 4 2 5 6 4 9 0 4-2 7-4 10l-15 12c-11 7-24 11-34 20-1 0-2 2-3 1-2-1-1-2-1-4v-89c0-15 12-29 27-32 18-4 33-12 44-28 6-9 13-17 23-22l15-4c2 0 4-1 4-3 0-3-2-3-4-4-14-4-28-6-43-1-4 1-5 0-4-5s0-10-1-15c-4-11-11-19-21-24-6-4-13-7-19-12-8-7-16-15-20-26-1-3-2-5-6-5-4-1-7 1-9 5-5 13-14 24-27 31l-18 11c-11 9-18 20-16 34 1 6 0 7-6 5-14-4-28-2-42 2-1 1-3 2-3 4l3 3h4c14 3 25 11 33 23 11 18 27 28 48 31 12 2 25 18 25 30a26078 26078 0 0 1-1 91l-1 4c-2 1-3-1-4-2l-8-5-32-19c-6-4-11-9-12-16-2-5 0-8 5-10 8-3 15 0 17 9 1 4 3 7 7 6 5-1 6-4 5-8 0-4-1-7-3-11-6-7-20-10-28-8-14 4-20 17-13 31 6 12 17 19 29 25 9 5 20 7 27 15 10 13 15 18 3 32-10 18-24 32-39 46-6 6-14 11-22 14-7 2-14 4-20-4l-20-23-28-33c-2-2-1-4 0-6l8-11c15-23 20-48 13-74-3-11-8-20-10-30-1-2-2-4-4-4s-4 2-4 4c-6 13-12 26-16 41-6 19-10 38-5 58v4c-1 1-3 0-4-1-9-5-18-8-28-12-7-2-15-5-23-5-20-1-40 2-60 4-2 0-4 1-4 3-1 3 1 3 3 4 4 3 9 3 13 6 14 8 28 17 44 23 13 5 26 7 39 5 8-1 16-3 23-6 4-1 6-1 9 2l45 53c3 2 6 5 6 9 0 9-1 18-4 26-9 21-22 39-40 54-5 3-9 8-16 8H235c-4 0-7-1-10-3-12-7-23-16-32-28-7-10-12-22-12-35 1-12 9-24 19-29 12-5 33 4 40 14 4 5 5 10 1 16-4 5-8 9-15 7-3 0-5 1-6 3-1 3 1 4 2 6 2 2 5 2 7 2 6 1 10-2 14-5 13-8 15-26 4-37l-8-7c-20-14-49-16-64 11-2 4-4 5-9 6-11 1-20 5-27 14l-8 8c-11 6-19 14-18 28 0 2 0 3-2 4l-44 24c-3 2-6 4-5 8 0 3 2 5 5 6l3 1c13 8 26 17 40 23 3 1 3 2 3 5-1 11 5 19 13 25 3 3 8 3 11 8 6 10 16 15 27 16 6 1 10 4 13 10 7 13 23 20 38 17 12-2 23-8 31-17 9-9 10-18 4-29-4-9-18-15-26-12-3 1-5 3-4 7 0 3 3 4 6 3 6-1 11 1 14 6 3 4 4 9 1 15-5 9-14 12-23 16-20 7-35-9-37-26-1-11 2-21 7-30 9-17 23-28 40-37l6-2h118c3 0 5 1 6 5 0 2 2 4 4 5l20 17c9 9 16 20 22 31 4 8 8 17 9 26 1 4 0 7-2 9l-18 21-27 31c-7 9-7 9-18 6l-2-1c-24-8-47-4-69 7-15 8-28 17-43 23-2 1-4 1-3 4 0 2 2 3 4 3l4 1c14 2 28 2 43 3 12 1 25-1 37-6 9-3 18-6 27-11h3c2 1 1 2 1 4l-3 10c-1 16 2 31 6 46l16 42c1 2 2 4 5 4s3-2 4-4l10-31c4-14 4-27 1-41-3-16-12-30-21-43-2-2-2-4 0-6l41-47c4-6 8-8 16-7 13 1 22 6 31 14 19 14 33 33 45 52 2 3 2 5 1 8-5 8-11 16-20 20-10 4-21 10-30 16-7 4-12 10-16 17-5 11-2 21 7 27s26 4 34-4c3-3 5-8 5-13 0-4-2-6-6-6-3-1-6 1-7 5 0 7-5 10-11 11-9 0-14-7-10-15 5-10 13-15 22-20s19-9 28-16c1-1 3-3 5-2s1 3 1 5v88c0 15-12 29-27 32-18 3-33 11-43 27-10 14-21 25-39 26-2 1-4 1-4 4 0 2 2 2 4 3 14 5 28 6 42 2 5-2 6-1 5 5v10c3 15 13 24 25 30 16 9 30 19 36 37 1 3 4 5 7 5s6-1 7-4l3-7c5-9 11-16 19-22l22-13c12-9 20-20 18-37-1-4 1-5 5-4h2c14 3 28 3 42-3 1 0 3-1 2-3l-2-2-3-1c-14-2-24-8-32-19l-11-15a62 62 0 0 0-38-20c-14-2-26-17-26-30v-90c0-1 0-3 2-4s3 1 4 2l3 2c8 6 18 9 26 15 8 5 17 9 21 19 2 3 3 7 1 10-3 3-7 5-11 5-7-1-9-3-11-11-1-4-3-6-7-5-4 0-6 3-5 7 0 3 0 7 3 10 6 8 23 12 32 8 10-5 14-14 12-22-1-6-4-11-8-16-8-9-19-15-30-20-10-4-19-9-26-19-5-7-5-9-1-16 12-18 25-35 42-49 9-7 19-14 32-14 2 1 4 0 6-1 3-1 5 0 6 2l46 54c2 1 2 3 0 5-8 11-15 23-20 37-3 12-5 25-3 38 2 14 9 27 12 41 1 2 2 3 4 3s4-1 5-3l17-46c4-14 6-28 5-42l-2-12 1-4 2 1 21 9c8 3 15 6 23 7 18 3 36 0 53-1l14-2c2 0 5-1 5-3 0-3-2-4-4-4-15-6-27-15-41-22-13-7-27-12-43-12-12 0-24 3-35 6-3 1-5 1-7-1l-14-16-32-37c-6-7-9-14-5-23 10-26 26-49 50-65 1-1 3-3 3-5 1-4 4-5 7-5a44527 44527 0 0 0 127 2c15 10 28 21 37 36 8 15 11 29 4 44-5 9-16 16-25 15-11-2-21-6-29-14-4-5-6-11-3-16 3-7 8-10 15-9 3 1 6 1 7-3s-2-6-5-7c-6-1-12 0-17 3-14 9-16 29-4 40 8 6 16 10 25 13 17 6 36-1 45-17 2-5 5-7 11-7 12-2 22-7 28-18l5-4c10-4 18-12 18-23 0-8 4-10 11-14l36-20c3-2 6-3 6-7s-3-6-6-7"/>
    <path d="M513 168s-2 11-15 18c0 0 12 10 15 19 0 0 6-13 15-19 0 0-12-6-15-18"/>
    <path d="M511 819s-6 13-15 19c0 0 8 3 15 18 0 0 7-15 15-18 0 0-8-4-15-19"/>
  </g>
  <path id="logo-cross-border" fill="none" stroke="var(--main,#fdc31e)" stroke-linecap="round" stroke-linejoin="round" stroke-width="5" d="M401 129c17-9 36-5 51 0-13-52 31-29 62-89 20 50 71 42 64 88 18-5 35-5 51 1-61 17-25 43-89 57-13 4-19 20-26 32-8-12-13-27-27-32-63-13-30-39-86-57m113-50c2 13 18 14 18 27 14-3 27 10 19 25-11 1-23 1-30 14-14 27 17 41 19 41M514 79c-2 12-18 14-20 25-12-2-25 13-18 27 20-1 26 7 29 13 11 22 0 29-18 42m91-58c-14 10-17 13-27 3m-99-2c11 14 14 11 24 2m38 87-1 110c31-35 68-28 71-59 2-14-25-29-36-1m-172-39c-20 49-33 75-15 119 45-48 26-79 15-119m275 4c21 39 31 85 13 115 21-28 80-37 126-25m-139-90c-27 46-11 95 13 115v0m-151-20c-32-32-64-32-70-56-4-16 22-29 33-5m-115 81c-51 28-88-9-127-25 48-9 89-10 127 25m152-20v0c-4 36-66 104-93 89 5 31-29 74-61 96 21 20 71 70 57 100 31-8 88 35 96 80-20 35-57 24-70 57-4 11 4 21 15 20 9 0 14-5 17-12m316-435c-33 24-87 47-126 25m-151-20c-1 36 60 102 91 89-2 31 22 80 62 95l132 1c11-1 28-22 36-31 5-5 14-32 14-52 20-1 32 10 37 19 12 5 24 14 22 34-24-10-46-11-68 4l8 12c31-16 47 1 71 12-17 11-42 30-72 13 2-8 3-18 1-25M361 348l59 69m244-69-60 69m-427 13c-18 0-32 5-37 19-18 7-23 16-21 32 28-9 42-7 69 2-11-19-14-44-11-53 15-39 58-25 69-4 8 16-8 26-22 27m575 0c-12 0-28-10-22-25 19-34 64-29 71 2m-729 51c-12 8-34 21-55 32m124-30c10 8 28 22 42 29l129 1m548-30c13 7 33 21 54 28m-127-29 5 5m-651-4c-3 3-6 9-11 19-21-22-47-2-70 10 20 12 51 31 70 10 3 7 6 14 11 19 7-7 42-29 42-29m-53-10c-2 7-1 14 0 20m784-11-57 32c1 11 2 25-20 31-7 19-26 20-36 18-16 45-57 21-63 15-15-15-9-35 13-36M64 513c25 10 42 25 57 29 25 10 40 9 67-1-5 14-15 33-13 52-16-2-29-5-34-18-15-2-27-18-20-32m545-31c-33 24-68 71-61 99-28 4-83 22-93 82m286-180 37 30 11-19m-7 13c19 18 42 10 65 6m-69 0c4 9 13 31 13 49m-624-21c63 2-11 93-49 22m241 20c-11 10-53 60-55 64-14 23-15 63 13 117 20-44 19-81-13-117m244-66c17 15 57 66 57 66-42 44-26 92-13 117 31-56 23-110 13-117m-427 24c35-14 66-52 126-24m301 0c66-31 107 25 128 24m-555 0c43 9 83 7 126-24m301 0c26 32 95 36 128 24m-244 57c3 4 7 10 15 12s19-4 19-14c1-32-48-28-68-63l-2 108c0 18 22 37 28 38 58 9 37 47 88 56-20 7-42 5-52-1l-16-8-11 6c10 15-8 28-18 28-3 13-14 14-18 23-3-9-19-13-19-23-20 3-22-19-19-28 15 4 34-8 34-24 1-9-9-27-25-28-43-1-46 54-88 54 9 7 38 7 53 1 6-2 12-8 16-9 3 3 6 5 10 6m37-91c-2 16-9 31-28 39m56-1c-18 4-24 20-24 29 0 8 12 28 33 24m-100 3c-3 61 28 22 63 88 35-68 70-26 64-89"/>
</g>
</svg>