<svg xmlns="http://www.w3.org/2000/svg" width="1024" height="256" viewBox="0 0 1024 256"><g fill="#1d1d1b"><path d="m335.3 109.1.3.1.2.1c2.1.7 4.3 1 6.5 1a9 9 0 0 0 8-5.4c.6-1.3.9-2.8.9-4.6v-7c0-1.1-.4-2-1.3-3a12 12 0 0 0-3.4-2.3c-1.4-.7-3-1.4-5-2l-6.2-1.7zm-8.2-69.6a8.9 8.9 0 0 0-5.7 2.3 9.9 9.9 0 0 0-3.3 7.7v9.8a7 7 0 0 0 1.3 4c.8 1.2 2 2.3 3.4 3.3s3.1 1.8 5 2.5c2 .8 4 1.4 6.2 2V40.6h-.4a23.8 23.8 0 0 0-6.5-1.1m5.3 77.9h-2a24.4 24.4 0 0 1-15.9-5.7c-2-1.8-3.8-4-5.3-6.6a30.6 30.6 0 0 1-3.3-8.4 10 10 0 0 1 3-9.9c1.3-1.2 3-2.1 5-2.8 2-.7 4-1 6.5-1a4 4 0 0 0-2 2.8 9 9 0 0 0 0 3.3c.9 4.4 2.6 8.3 5.1 11.7 2.5 3.4 6 6 10.2 7.8h.3V84l-9.9-2.7a57 57 0 0 1-9-3.3c-2.8-1.3-5-2.8-6.8-4.6a8.8 8.8 0 0 1-2.6-6.4V51.9c.2-.5.7-1.2 1.7-2.2a49.6 49.6 0 0 1 8.2-6.6 178.1 178.1 0 0 1 14.6-9.2 16.6 16.6 0 0 1 3.8-1v-.1a9.5 9.5 0 0 1 1.3-.2 24.3 24.3 0 0 1 19.4 5.6 26 26 0 0 1 5.4 6.6c1.5 2.5 2.6 5.3 3.3 8.3.4 2 .4 3.9-.2 5.6a10 10 0 0 1-2.7 4.3c-1.4 1.2-3 2.2-5 3-1.9.6-4 1-6.5 1a4 4 0 0 0 2-3 9 9 0 0 0 0-3.2c-.9-4.4-2.6-8.3-5.1-11.8-2.6-3.5-6-6-10.3-7.7l-.3-.2v30.3l9.9 2.4c3.3.8 6.4 1.6 9.2 2.5 2.7.9 5 2 6.7 3.1 1.7 1.3 2.6 2.8 2.6 4.6v13.9h-.1c-.2.6-.7 1.3-1.7 2.2a49.5 49.5 0 0 1-8.2 6.6 176.4 176.4 0 0 1-11.5 7.7l-.7.3-.7.4-.9.4-.8.4a15.8 15.8 0 0 1-3.8 1.1v3.4c.7.1 1.2.4 1.6 1 .4.4.6 1 .6 1.7 0 .3-.2.8-.5 1.4a19.9 19.9 0 0 1-2.3 3.6l-1.4-2-1-1.6c-.3-.6-.4-1-.4-1.4 0-.7.2-1.3.6-1.8.3-.5.9-.8 1.5-1v-3.1a20.7 20.7 0 0 1-1.6.2"/><path d="M378.7 92c0 2.8 1 5 3 6.8 2 1.8 4.3 2.6 7 2.6h1.9V74.6l-12 4.4zm11.9-23.6c0-2.8-1-5.1-3-7-2-1.7-4.4-2.6-7.1-2.6h-1l-.8.1h-.1v8c0 1.1 0 2 .2 2.8l.5 1.6c.2.4.4.8.7 1-3 0-5.4-.2-7.2-.3-1.8-.2-3.2-.5-4.1-1-1-.3-1.6-.8-2-1.3-.3-.5-.4-1.2-.4-1.9v-6a5704.6 5704.6 0 0 1 25.4-8h.6a9 9 0 0 1 3.6.8 12.5 12.5 0 0 1 5.6 4.9c.7 1 1 2.2 1.3 3.4l.2 2v27c0 1.4 0 2.7.3 4 .3 1.4.7 2.6 1.3 3.8.6 1 1.5 2 2.5 2.7a7 7 0 0 0 4 1l-3.2.9-3.4 1a52.7 52.7 0 0 1-5.6 1.1 7 7 0 0 1-2-.3 12.8 12.8 0 0 1-5.9-3.7 740.9 740.9 0 0 0-12 3.8l-.8.1a2 2 0 0 1-.6.1h-.7c-1.2 0-2.4-.2-3.6-.7a11.5 11.5 0 0 1-7-8.3 9 9 0 0 1 0-2V81.1l24.3-8.3z"/><path d="M428.7 57a46.9 46.9 0 0 1 6.4-2 52.7 52.7 0 0 1 5.6-1.1h.5c1.5.3 2.8 1 3.8 1.8 1 1 1.9 2 2.5 3.1a13 13 0 0 1 1.2 4c.3 1.4.4 2.8.4 4.2v29.5c0 1.8.6 3.3 1.7 4.5a6.9 6.9 0 0 0 4.6 2l-3 1-3.4 1a107.6 107.6 0 0 1-5.1 1.4h-1a10 10 0 0 1-2.6-.3 4 4 0 0 1-2-1.4c-1-.8-1.4-2-1.5-3.3a36.5 36.5 0 0 1-6.7 3 743.6 743.6 0 0 1-5 1.8 51.8 51.8 0 0 1-2.3.3c-.6 0-1.5 0-2.6-.3a8.5 8.5 0 0 1-3.5-1.8c-1.2-1-2.2-2.3-3-4-.8-1.7-1.2-4-1.2-7V68c0-1.3-.2-2.6-.5-4-.3-1.3-.7-2.5-1.3-3.5-.6-1-1.4-2-2.5-2.6-1-.7-2.3-1-3.8-1a46.9 46.9 0 0 1 6.5-2 75.4 75.4 0 0 1 5.5-1.1h.5c1.4.3 2.6.8 3.5 1.5 1 .8 1.8 1.7 2.4 2.8.6 1 1 2.2 1.4 3.4.3 1.2.5 2.4.6 3.7V92c0 1.8.2 3.3.6 4.5.5 1.1 1 2 1.8 2.7.7.7 1.6 1.1 2.5 1.4.9.3 1.8.5 2.6.5a11.7 11.7 0 0 0 4.5-.9V68.4c0-1.3-.2-2.7-.4-4-.3-1.4-.7-2.6-1.3-3.7-.6-1.1-1.4-2-2.5-2.7a7 7 0 0 0-3.9-1"/><path d="M482.2 68.2c0-2.8-1-5.1-3-6.9-2-1.8-4.3-2.7-7-2.7h-1l-1 .1v33.2c0 2.9 1 5.2 3 7 2 1.7 4.4 2.6 7.2 2.6h1.8zm-1.3-14 .7-.3.6-.1V41a5 5 0 0 0-.6-2 6 6 0 0 0-2.3-2.3c-1.1-.7-2.3-1-3.3-1.1a462.5 462.5 0 0 1 9.6-3.2l.6-.1h.2a8 8 0 0 1 2.1-.3c1.8 0 3.2.5 4.3 1.4 1 1 1.7 2.3 1.8 4.2V92c0 1.4.1 2.7.4 4a12 12 0 0 0 1.3 3.7c.6 1.1 1.4 2 2.4 2.7 1 .6 2.3 1 3.9 1a62.4 62.4 0 0 1-12.5 3 8.7 8.7 0 0 1-3.7-1.6c-1-.8-1.7-1.7-2.3-2.8l-.7.2a129 129 0 0 1-15 4.3c-1.2 0-2.3-.2-3.5-.7a12.7 12.7 0 0 1-5.6-5 9.3 9.3 0 0 1-1.4-5.4V61.6a208.7 208.7 0 0 1 11.8-4 532.5 532.5 0 0 1 11.2-3.4"/><path d="M514.5 92c0 2.8 1 5 3 6.8 2 1.8 4.3 2.6 7 2.6h1.9V74.6l-12 4.4zm11.9-23.6c0-2.8-1-5.1-3-7-2-1.7-4.3-2.6-7.1-2.6h-1l-.8.1h-.1v8c0 1.1 0 2 .2 2.8l.5 1.6.7 1c-3 0-5.4-.2-7.2-.3-1.8-.2-3.2-.5-4.1-1-1-.3-1.6-.8-2-1.3-.3-.5-.4-1.2-.4-1.9v-6a5706.3 5706.3 0 0 1 25.4-8h.6a9 9 0 0 1 3.6.8 12.5 12.5 0 0 1 5.6 4.9c.7 1 1 2.2 1.3 3.4l.2 2v27c0 1.4.1 2.7.4 4 .2 1.4.6 2.6 1.3 3.8.6 1 1.4 2 2.4 2.7a7 7 0 0 0 4 1l-3.2.9-3.4 1a52.7 52.7 0 0 1-5.6 1.1 7 7 0 0 1-2-.3 12.8 12.8 0 0 1-5.8-3.7 740.9 740.9 0 0 0-12 3.8l-1 .1a2 2 0 0 1-.5.1h-.7c-1.2 0-2.4-.2-3.6-.7a11.5 11.5 0 0 1-7-8.3 9 9 0 0 1 0-2V81.1l24.3-8.3z"/><path d="M563 106a8.7 8.7 0 0 1-6.6-.2 12.7 12.7 0 0 1-5.7-5c-.6-1-1-2.2-1.3-3.4a270.3 270.3 0 0 0 0-9V61.8a408.4 408.4 0 0 1 23.8-7.7l1-.2h.5l.7-.1a9 9 0 0 1 3.6.8 12.5 12.5 0 0 1 5.6 4.9c.6 1 1 2.2 1.2 3.4.2.7.2 1.3.2 2v2l-14 6 1.2-1.5c.3-.6.4-1.6.4-3 0-2.8-1-5.1-3-7-2-1.7-4.3-2.6-7-2.6h-1.9V92c0 2.9 1 5.2 3 7 2 1.7 4.4 2.6 7.1 2.6h1.8l12.4-4.2v1.3a202.4 202.4 0 0 1-11.7 3.9A359.4 359.4 0 0 1 563 106"/><path d="M613 68.4c0-2.8-1-5.1-3-7-2-1.7-4.4-2.6-7.2-2.6h-.9l-.9.1v19.9a137.5 137.5 0 0 0 7.5-4.8 21 21 0 0 0 3.1-2.9c.9-1 1.3-1.9 1.3-2.7M601 91.9c0 2.9 1 5.2 3 7 2 1.7 4.3 2.6 7.1 2.6h1.8l12.4-4.2v1.3a199.6 199.6 0 0 1-11.7 3.9 352 352 0 0 1-11.3 3.5 8.7 8.7 0 0 1-6.7-.2 12.7 12.7 0 0 1-5.6-5 9.3 9.3 0 0 1-1.4-5.4V61.8a408.4 408.4 0 0 1 23.9-7.7l1-.2h.5l.7-.1a9 9 0 0 1 3.6.8 12.5 12.5 0 0 1 5.6 4.9c.6 1 1 2.2 1.2 3.4.2.4.2.7.2 1V65a3 3 0 0 1-.5 1.7 3 3 0 0 1-1.2 1.1L601 80z"/><path d="M714.5 55.1A23.7 23.7 0 0 0 703 37.5h-.4V80h.3c3.9-1.9 6.7-4.4 8.7-7.6 1.9-3.1 3-6.8 3-11 .1-2 0-4.1-.2-6.3m-17 28.1v22.3l.2 3.4c.2 1.1.5 2.2 1 3.3l1 1.8 1.2 1.5.2.1s.2 0 .3.2V83l-.1-.2-.6.1h-3.2zm30.2-25v2.6a15 15 0 0 1-.2 2.4c-.5 2.9-1.5 5.5-3.1 7.8a24.7 24.7 0 0 1-5.7 6 33.4 33.4 0 0 1-15.6 5.8c-.2 0-.4 0-.4.3v37.2l.2.2c.5.2 1 .5 1.4 1 .5.8.7 1.6.4 2.4l-.4.9a39.5 39.5 0 0 1-2.1 3.3h-.1l-.8-1a16 16 0 0 1-1.5-2.5l-.3-.6a2 2 0 0 1 0-1.7c.1-.5.4-1 .7-1.3a2 2 0 0 1 1-.5l.2-.2v-2h-.3a45.4 45.4 0 0 1-7.8 1.9c-.4 0-.9-.2-1.5-.4a8.1 8.1 0 0 1-3.2-2c-.9-1-1.6-2-2.1-3.1-.5-1.2-.9-2.4-1.1-3.6l-.3-3.8V79.7l-.2-.5c-1-1-2-1.8-3.1-2.5-.6-.3-1.2-.5-2-.6-.6 0-1.1 0-1.5.2a3 3 0 0 0-1.3 1c-.2.1-.4.4-.5.7 0 .3-.2.7-.5 1.2l-.2.2v-.2l.5-2a80 80 0 0 1 3.3-8.2c.3-.6.8-1 1.3-1.5.6-.3 1.2-.5 2-.5.7 0 1.3.2 2 .5l.2.1V47.3l-.2-1c-.3-1.4-1-2.4-2-3-1.1-.8-2.3-1.3-3.4-1.6h-.6a227.6 227.6 0 0 1 11.2-3.5h1.5c1 0 2 .2 2.8.6 1.5.7 2.5 1.8 2.9 3.6l.2.9v38.1h1a96.1 96.1 0 0 1 2.7-.7l.2-.3V37c0-.5-.5-.9-1.6-1.2a28.5 28.5 0 0 0-7.6-1.5l-2.7-.2c-2.9 0-5.7.4-8.3 1.3-2.7.8-5 2-7 3.6a18.4 18.4 0 0 0-7.2 14 21 21 0 0 0 6.6 17l-13-5.5a6.3 6.3 0 0 1-3.1-2.7 9.4 9.4 0 0 1-1.3-4v-2.6a20 20 0 0 1 3.2-9.8c1.8-2.8 4-5.1 6.8-7a33 33 0 0 1 9.3-4.2c3.3-1 6.7-1.7 10-2h2.5c.3 0 .5-.1.5-.2h3.5l.5.1h2.5a510.8 510.8 0 0 0 3.8.5l4.9.8c3.1.8 6.1 1.9 9 3.2 2.8 1.4 5.4 3 7.6 5a22 22 0 0 1 7.4 16.5"/><path d="m734.8 44.3 7.5-7.5 7.6 7.5-7.6 7.5zm22 59-3.1 1-3.4 1a61.4 61.4 0 0 1-5.6 1.1h-.5c-1.5-.3-2.8-.9-3.8-1.8s-1.8-2-2.4-3.1a15 15 0 0 1-1.3-4l-.3-4.1V62.9a5 5 0 0 0-.5-2 6.7 6.7 0 0 0-2.5-2.4c-1.1-.7-2.2-1-3.3-1.1a72.4 72.4 0 0 1 13-3.5l1 .1c1.4.3 2.6 1 3.4 1.8a5 5 0 0 1 1.2 3.6v32.5c0 1.4.2 2.7.4 4 .3 1.4.7 2.6 1.3 3.8.6 1 1.4 2 2.5 2.7a7 7 0 0 0 4 1"/><path d="M783.6 68.4c0-2.8-1-5.1-3-7-2-1.7-4.3-2.6-7-2.6h-1l-1 .1v19.9a137.5 137.5 0 0 0 7.6-4.8 21 21 0 0 0 3.1-2.9c.9-1 1.3-1.9 1.3-2.7m-12 23.5c0 2.9 1 5.2 3 7 2 1.7 4.4 2.6 7.2 2.6h1.9l12.3-4.2v1.3a199.6 199.6 0 0 1-11.8 3.9A348.4 348.4 0 0 1 773 106a8.7 8.7 0 0 1-6.6-.2 12.7 12.7 0 0 1-5.6-5 9.3 9.3 0 0 1-1.4-5.4V61.8a408.4 408.4 0 0 1 23.9-7.7l.9-.2h.6l.6-.1a9 9 0 0 1 3.6.8 12.5 12.5 0 0 1 5.7 4.9c.6 1 1 2.2 1.2 3.4l.2 1V65a3 3 0 0 1-.5 1.7 3 3 0 0 1-1.2 1.1L771.7 80z"/><path d="M810.9 53.9a8 8 0 0 1 3.6.9c1.2.5 2 1.5 2.2 3a663.7 663.7 0 0 1 12.7-3.9h.6l.7-.1c1.5 0 3 .4 4.3 1 1.3.8 2.5 1.7 3.5 2.8.7.7 1.2 1.6 1.7 2.4a10 10 0 0 1 1.2 4.9v2l-14.2 6c.5-.4 1-1 1.3-1.5.3-.6.4-1.6.4-3 0-2.8-1-5.1-3-7-2-1.7-4.3-2.6-7-2.6H817V92c0 1.4.2 2.7.4 4 .3 1.4.7 2.6 1.3 3.8.6 1 1.4 2 2.5 2.7a7 7 0 0 0 3.9 1l-3.1.9-3.4 1a60 60 0 0 1-5.6 1.1h-.5c-1.5-.3-2.8-.9-3.8-1.8s-1.8-2-2.4-3.1a15 15 0 0 1-1.3-4c-.2-1.4-.4-2.8-.4-4.1v-31l-.4-1.5a7 7 0 0 0-2.5-2.4 7 7 0 0 0-3.3-1.1 430.6 430.6 0 0 1 11.5-3.5z"/><path d="M857.6 106a8.7 8.7 0 0 1-6.7-.2 12.7 12.7 0 0 1-5.6-5c-.7-1-1-2.2-1.3-3.4a270.3 270.3 0 0 0 0-9V61.8a408.4 408.4 0 0 1 23.8-7.7l1-.2h.5l.7-.1a9 9 0 0 1 3.6.8 12.5 12.5 0 0 1 5.6 4.9c.6 1 1 2.2 1.2 3.4.2.7.2 1.3.2 2v2l-14.1 6c.5-.4 1-1 1.2-1.5.4-.6.5-1.6.5-3 0-2.8-1-5.1-3-7-2-1.7-4.3-2.6-7-2.6h-1.9V92c0 2.9 1 5.2 3 7 2 1.7 4.3 2.6 7.1 2.6h1.8l12.4-4.2v1.3a202.4 202.4 0 0 1-11.7 3.9 359.4 359.4 0 0 1-11.3 3.5"/><path d="m887.8 44.3 7.5-7.5 7.6 7.5-7.6 7.5zm22 59-3.1 1-3.4 1a61.4 61.4 0 0 1-5.6 1.1h-.5c-1.5-.3-2.8-.9-3.8-1.8s-1.8-2-2.4-3.1a15 15 0 0 1-1.3-4l-.3-4.1V62.9a5 5 0 0 0-.5-2 6.7 6.7 0 0 0-2.5-2.4c-1-.7-2.2-1-3.3-1.1a72.4 72.4 0 0 1 13-3.5l1 .1c1.4.3 2.6 1 3.4 1.8a5 5 0 0 1 1.2 3.6v32.5c0 1.4.2 2.7.4 4 .3 1.4.7 2.6 1.3 3.8.6 1 1.5 2 2.5 2.7a7 7 0 0 0 4 1"/><path d="M923.4 92c0 1.3 0 2.6.3 4 .3 1.3.7 2.5 1.3 3.7.6 1 1.5 2 2.5 2.7a7 7 0 0 0 4 1l-3.2.9-3.4 1a61.6 61.6 0 0 1-5.6 1.1h-.5c-1.5-.3-2.8-.9-3.8-1.8s-1.8-2-2.4-3.1a15 15 0 0 1-1.2-4c-.3-1.4-.4-2.8-.4-4.1V63.8l-.1-1.5c0-.5-.2-1-.4-1.5a6.7 6.7 0 0 0-2.5-2.3c-1-.7-2.2-1-3.3-1.1a569.5 569.5 0 0 1 10.6-3.3l2-.3c1.5 0 3 .5 4 1.3a5 5 0 0 1 2 3.9 93.6 93.6 0 0 1 13-5.1l.7-.1c1.5 0 3 .4 4.3 1 1.4.8 2.6 1.7 3.6 2.8l1.7 2.4a10 10 0 0 1 1.1 4.9v27c0 1.4 0 2.7.3 4 .3 1.4.7 2.6 1.3 3.8.7 1 1.5 2 2.5 2.7a7 7 0 0 0 4 1l-3.2.9-3.4 1a52.7 52.7 0 0 1-5.6 1.1h-.5c-1.5-.3-2.8-.9-3.8-1.8s-1.8-2-2.4-3.1a15 15 0 0 1-1.2-4c-.3-1.4-.4-2.8-.4-4.1v-25c0-2.5-.8-4.5-2.3-6.1a8.1 8.1 0 0 0-6.2-2.4c-1.3 0-2.4 0-3.4.3z"/><path d="M979.6 68.4c0-2.8-1-5.1-2.9-6.9-2-1.7-4.3-2.6-7.1-2.6h-1.9v33c0 2.9 1 5.2 3 7 2 1.7 4.4 2.6 7.1 2.6h1.8zM969 106a8.7 8.7 0 0 1-6.7-.2 11.2 11.2 0 0 1-6.9-8.4l-.1-2V61.8l1-.4.9-.3 4.3-1.4a69.7 69.7 0 0 0 7.3-2.4 328.1 328.1 0 0 1 11.3-3.4h.7l.6-.1a9 9 0 0 1 3.6.8 12.5 12.5 0 0 1 5.6 4.9 9.8 9.8 0 0 1 1.4 5.4v55.7a1921.8 1921.8 0 0 0-18.5 6 77.3 77.3 0 0 1-6.5 1.4h-1.4c-1.6 0-3.2-.2-4.6-.6a8.1 8.1 0 0 1-3.8-2.6c-1-1.4-1.7-3-2-4.7l1-.3.8-.3 8.6-2.9.9-.2a5 5 0 0 1 1-.3c.6 2.7 1.6 4.6 3.1 5.7 1.5 1.1 3.6 1.6 6.4 1.6h2.6v-20.7A449.3 449.3 0 0 1 969 106"/><path d="M479.2 190c.6-1.1 1-2.3 1.2-3.6v-3.6c0-.4-.2-.8-.4-1.2l-.8-1.3a4 4 0 0 0-1.1-.9 2 2 0 0 0-1.3-.1c-.5.1-.7.4-.8 1a23.8 23.8 0 0 0 1 5 47 47 0 0 1 1.4 4.9c.1.4.4.3.8-.3m-6.4-28c0 .6.3.8.5.8.3 0 .7-.2 1-.5l1.1-1a42 42 0 0 1 2.7-3 20.8 20.8 0 0 0 3.3-7c.3-.7.3-1.5.2-2.3 0-.8-.3-1.5-.9-2-.6-.8-1.3-1-2-1a4 4 0 0 0-2 .7c-.8.5-1.3 1.1-1.9 1.8-.5.7-.9 1.4-1.1 2a9 9 0 0 0-.9 2.7 23.4 23.4 0 0 0-.2 6l.2 2.9m-1 36.8c.8-.5 1-1 .8-1.8a35.4 35.4 0 0 1-1-4.5 88.5 88.5 0 0 0-1.8-7.4 208.2 208.2 0 0 0-1.6-7 138.3 138.3 0 0 1-1.1-6.4c-.3-.3-.6-.4-1-.3l-1.5.7-1.3 1.1-1 .9a56.2 56.2 0 0 0-4.8 5.7 21 21 0 0 0-3.1 6.4 17.7 17.7 0 0 0-.9 7.5c.2 1.2.5 2.3 1 3.4.6 1.1 1.4 2 2.5 2.7 1.2.8 2.4 1.2 3.7 1.4a16.7 16.7 0 0 0 11.2-2.5m25-30.3a8.7 8.7 0 0 1-2.3 9 6 6 0 0 1-2.4 1.5c-.9.3-1.9.5-3 .6h-2.5l-.7.3c-.3.3-.3.7-.2 1.3l.3 1.4a12 12 0 0 1-1.4 6.2c-1 2-2.2 3.7-3.5 5.2-.8.9-1.3 1.7-1.3 2.3 0 .7.1 1.5.5 2.6a46.2 46.2 0 0 1 .5 2.8c0 .3-.3.6-.6.8l-1.6.4a94.1 94.1 0 0 1-3.7.2c-.4-.1-.6-.3-.7-.5a44.7 44.7 0 0 0-1-1.5l-.9.1-1.2.6-1.3.7a23.7 23.7 0 0 1-12.3 2.6 14 14 0 0 1-5.3-1.2 11.7 11.7 0 0 1-6.4-7.4c-.5-1.8-.6-3.6-.4-5.6.2-2 .8-4 1.7-5.8 1-1.8 2.1-3.5 3.5-5 1.3-1.5 2.7-2.9 4.2-4a117.1 117.1 0 0 1 11.4-7.8l.2-1a42 42 0 0 0-.4-3.2c-.1-2 0-4 .2-6.1a18 18 0 0 1 5-9.9c1.3-1.2 2.7-2.2 4.2-3l2.6-.8 3-.3c1 0 1.9.3 2.8.6a6 6 0 0 1 2.3 1.6c.6.6 1 1.4 1.2 2.1.2.8.2 1.6.1 2.5 0 .8-.3 1.6-.6 2.4-.4.8-.7 1.6-1.2 2.3-1 1.5-2.2 2.9-3.6 4.1a46.7 46.7 0 0 1-8 5.7c-.2.3-.5.7-.6 1.1-.3.8-.2 1.8 0 3a89.8 89.8 0 0 1 2 7l.8-.6 2.3-1.4c.8-.4 1.6-.8 2.6-1 1-.3 1.9-.4 2.8-.4H489.7c1 0 1.9 0 2.8-.3 1-.3 1.8-.6 2.2-1.2.3-.5.4-1.3.3-2.4l-.1-.8c0-.3 0-.6.2-.8.5-.3.9-.4 1.2 0 .3.3.4.6.5 1"/><path d="M535.7 186.1c-2 0-3.5-.5-4.9-1.5a9.5 9.5 0 0 1-3-4 23.2 23.2 0 0 1-1-6.7 31.2 31.2 0 0 1 10-20.4 36.8 36.8 0 0 1 34.5-9.5 97.2 97.2 0 0 0 14 1.4l2.8-.2c1-.1 2-.4 2.7-.8a26.6 26.6 0 0 1 1.7-.7h.9c.2 0 .4.3.4.7a3 3 0 0 1-.9 1.2 12.4 12.4 0 0 1-3 2l-1.4.7c-1.9.8-3.9 1.4-5.9 1.7-2 .2-4 .3-6 .2-2.1 0-4.2-.3-6.2-.6a829.5 829.5 0 0 0-12.1-1.5c-2-.1-4 0-6 .2s-3.8.7-5.7 1.4a17.1 17.1 0 0 0-8 6.4 32.4 32.4 0 0 0-4.8 9.7 20.2 20.2 0 0 0-.4 9.7c.2 1 .6 1.8 1.1 2.6a6 6 0 0 0 2 1.9c.8.5 1.8.7 3 .6a10.4 10.4 0 0 0 5-1.6l1.7-1.2c.5-.5 1-.8 1.5-1.1.5-.3 1-.5 1.6-.4.5.1.7.6.5 1.4-.2.6-.6 1-1.2 1.5s-1 1-1.6 1.3a44.1 44.1 0 0 1-5.2 3.9c-1 .5-1.9 1-2.9 1.2-1 .3-2 .5-3.2.5m28.2-12.2-1.3 2.5-2 3.6a55.9 55.9 0 0 1-11.4 15.8 32.7 32.7 0 0 1-12.8 6.5c-2.3.7-4.7 1.2-7.2 1.4-2.5.2-5 0-7.4-.9-1-.3-2.1-.9-3.2-1.7-1-.8-2-1.7-2.5-2.7a6 6 0 0 1-1-3.3 5 5 0 0 1 1.7-3.4c.8-.8 1.8-1.3 3-1.4 1.2-.2 2.2.1 3 1 .8.9 1.2 1.8 1.1 2.7 0 .7-.3 1.2-.6 1.6l-1 1.5c-.3.7-.3 1.2-.1 1.6.2.5.5.9 1 1.2.3.3.8.5 1.4.7l1.6.5c1.3.2 2.6.2 4 0a19.2 19.2 0 0 0 11-5.6c1.9-2 3.6-4.2 5.1-6.6 1.5-2.4 2.9-4.9 4.1-7.5a100 100 0 0 1 4-7.5h-3c-.3 0-.6 0-.9-.3l-.3-.6v-1c0-.3.1-.5.3-.7.3-.3.6-.4 1-.4h4.4l2.2-4a47.8 47.8 0 0 1 9.2-10.7 102 102 0 0 1 7.7-4.7l1.3-.4c.4 0 .9 0 1.2.2.3.2.4.4.4.7l-.3.6-.6.6a29.6 29.6 0 0 0-3.7 3c-.9 1-1.5 2-2 3a114 114 0 0 0-6 11.6h3.8c.3.1.7.2 1 .5l.3.6v1.1c0 .2-.1.4-.4.6-.2.2-.6.3-1 .3z"/><path d="M579.7 162.4c0-.6.2-1.2.4-1.8l1-1.7 1.5-1.2a4 4 0 0 1 1.7-.5c.6 0 1.1 0 1.5.2.4.2.7.6 1 1l.2 1.3c0 .5 0 1-.3 1.5-.4.9-1 1.7-2 2.4-1 .8-1.9 1.1-2.8 1.1a2 2 0 0 1-1.3-.5c-.4-.4-.7-1-.9-1.8m1 11.5c-.7 2-1.5 3.6-2.4 5.2a94.7 94.7 0 0 1-5 8.3 72.4 72.4 0 0 1-4.3 7 12 12 0 0 0-1.4 2.7l-.4 1.6c0 .5.1 1 .4 1.5.3.4.6.6.9.6.6.2 1.3.1 2-.3 1-.4 1.8-1 2.7-1.9a33.3 33.3 0 0 0 5.3-5.9 36.8 36.8 0 0 0 3.4-5.3l.3-.5.7-1c.2-.3.4-.3.5.1v.5l-.2.8c-.4.5-.8 1-1.1 1.7a24.7 24.7 0 0 1-7.7 11 17.7 17.7 0 0 1-4.3 3c-1.6.8-3.3 1.2-5.2 1.2a5 5 0 0 1-2-.4 3 3 0 0 1-1.5-1.5 5 5 0 0 1-.7-2.7c0-1.1.2-2.2.6-3.3a45.1 45.1 0 0 1 6.5-12l2-3.3 2-3.4.6-1.6a41.7 41.7 0 0 1 1-3.4l2.1-.4a40.4 40.4 0 0 1 5.2-.1V172.4l.1.7v.8"/><path d="M587 176.4c.4-.5.6-1 .6-1.6a22.2 22.2 0 0 1 0-2.6h.6l1.7-.1a73 73 0 0 1 5.1-.2l.4.6.1.9c0 .6-.3 1.3-.6 2l-1 2 2.9-2.3a18.7 18.7 0 0 1 4.7-2.7 11.3 11.3 0 0 1 4-.6c.5 0 1.2.1 1.7.3 1.3.7 2 1.6 2.1 2.8a11 11 0 0 1-.2 3.7c-.5 1.6-1.4 3.2-2.5 4.8a113.5 113.5 0 0 0-9.3 15 2 2 0 0 0 0 1.2c.2.4.6.5 1.3.4a11 11 0 0 0 4-1.9c1.2-.9 2.3-1.9 3.2-3 1-1.2 1.8-2.4 2.7-3.7a64.3 64.3 0 0 1 4.4-6c.3 0 .5.1.8.5.2.2.2.5.1.8 0 .3-.2.6-.4.9a13.4 13.4 0 0 1-1 1.4 225 225 0 0 1-3.6 4.8 43.7 43.7 0 0 1-4 4.6 25 25 0 0 1-4.8 3.6c-1.7 1-3.6 1.7-5.6 2-.8.1-1.6 0-2.3-.4-.7-.4-1.2-1-1.6-1.9-.4-1-.6-2-.4-3.1.2-1.1.5-2.2 1-3.3.5-1 1-2 1.7-3a811.8 811.8 0 0 1 9-14.3c.3-.4.5-.9.6-1.4.1-.6 0-1-.4-1.3-.4-.3-.8-.3-1.3-.1l-1.2.5a13 13 0 0 0-4.3 3.1 122.4 122.4 0 0 0-6 7.2 897.9 897.9 0 0 1-10.5 16.3l-.6.8c-.2.2-.6.3-1.1.2h-4.2c-.8 0-1.2-.1-1.4-.4-.1-.2 0-.6.2-1.1l1.4-2.6a1265.7 1265.7 0 0 0 14-22.8"/><path d="M616.3 186.9c1.6-.1 3.1-.6 4.5-1.6a44.3 44.3 0 0 0 5.6-4.7 14 14 0 0 0 2.5-3.9c.4-.7.5-1.4.5-2 0-.6-.2-.9-.5-1l-1 .1c-.5.2-1 .4-1.5.8a16.3 16.3 0 0 0-3.1 2.9c-1.4 1.4-2.7 3-3.8 4.5l-3.2 4.9m-3.5 10.7c.1 1 .5 1.8 1.1 2.1.6.4 1.4.5 2.2.4.8 0 1.7-.3 2.5-.7l2.2-1.1c1.3-.8 2.6-1.9 4-3.2a66.7 66.7 0 0 0 7-7.8l2.3-2.7c.3-.4.5-.5.7-.2v.8c-.2.8-.7 1.6-1.4 2.6a37.6 37.6 0 0 1-5.8 6.8 61.9 61.9 0 0 1-9 7.5 12.5 12.5 0 0 1-6.6 1.7c-1 0-2.1-.4-3.1-.9s-1.7-1.3-2.3-2.5c-.5-1-.7-2-.8-3.2a20.1 20.1 0 0 1 1.4-6.7 32.9 32.9 0 0 1 13.4-15.6 20.7 20.7 0 0 1 8-3.1c1-.2 2-.3 3-.2 1 .1 1.8.6 2.3 1.5.5.7.7 1.4.6 2.1a7 7 0 0 1-.5 2.2 9 9 0 0 1-1.1 2l-1.4 1.6a18.8 18.8 0 0 1-3.9 3.2 37.7 37.7 0 0 1-9.2 4l-1.7.3c-.7 0-1.2.2-1.5.6-.4.4-.7 1-.9 1.7l-.7 2-.7 2.3c-.2.8-.2 1.7-.1 2.5"/><path d="M694.6 154.3c-2.8 2-5.5 4.3-7.9 6.9a27 27 0 0 0-6.3 11.2l-.3 2.7c0 .9.1 1.7.4 2.6.3.8.8 1.5 1.5 2 1.1 1 2.3 1.3 3.7 1a7 7 0 0 0 4.2-2l.7-.8.8-.4.7.1c.3.2.4.3.4.6l-.1.6a4 4 0 0 1-.5.7l-.4.5a15 15 0 0 1-9.1 4.8 9 9 0 0 1-7.8-3 10.1 10.1 0 0 1-2.5-8c.2-1.8.7-3.6 1.5-5.2a28.2 28.2 0 0 1 6.1-9 46.2 46.2 0 0 1 13.2-9.3 63.2 63.2 0 0 1 20.7-6 97.5 97.5 0 0 1 16.4-.5c.5.1.9.3 1.3.6.3.3.6.5.7.9 0 .3 0 .6-.5 1l-1 .1a326 326 0 0 1-3.4-.6c-.7 0-1.5.3-2.3.7-.7.3-1.5.8-2.1 1.3a23.9 23.9 0 0 0-3.9 3.9 43 43 0 0 0-5.7 9.4l-2.4 5-5 10.2a208.6 208.6 0 0 1-11.1 20.2 83.5 83.5 0 0 1-14.8 17.3 43.8 43.8 0 0 1-19.9 9.8c-1.8.3-3.7.4-5.5.4-1.9 0-3.7-.4-5.4-1-1.5-.6-2.8-1.5-3.9-2.6a7 7 0 0 1-2-4.2 6.8 6.8 0 0 1 1.8-5.6c.5-.4 1-.7 1.7-.9h2a4.5 4.5 0 0 1 2.9 2.6c.3.6.4 1.3.3 2-.1.7-.4 1.4-.8 2-.5.7-.7 1.4-.6 2.1 0 1 .5 1.7 1.3 2.2.8.5 1.6.9 2.4 1 1.7.6 3.4.6 5 .3a16 16 0 0 0 4.6-1.8c1.5-.9 2.9-1.9 4.2-3a66 66 0 0 0 11-13c2.3-3.3 4.5-6.7 6.5-10.2a36697 36697 0 0 1 13.1-22.5c2-3.5 4-6.8 6.2-10.1a46.6 46.6 0 0 1 17-15.7c-5.1 0-9.9.7-14.3 2.3a56.3 56.3 0 0 0-12.8 6.4"/><path d="M710.8 186.9c1.6-.1 3.2-.6 4.5-1.6a44.3 44.3 0 0 0 5.6-4.7 14 14 0 0 0 2.5-3.9c.4-.7.5-1.4.5-2 0-.6-.2-.9-.5-1l-1 .1c-.5.2-1 .4-1.5.8a16.3 16.3 0 0 0-3.1 2.9c-1.4 1.4-2.7 3-3.8 4.5l-3.2 4.9m-3.5 10.7c.1 1 .5 1.8 1.1 2.1.6.4 1.4.5 2.2.4.8 0 1.7-.3 2.5-.7l2.2-1.1c1.3-.8 2.6-1.9 4-3.2a66.7 66.7 0 0 0 7-7.8l2.3-2.7c.3-.4.5-.5.7-.2 0 .2.1.5 0 .8-.2.8-.7 1.6-1.4 2.6a37.6 37.6 0 0 1-5.8 6.8 61.9 61.9 0 0 1-9 7.5 12.5 12.5 0 0 1-6.6 1.7c-1 0-2.1-.4-3-.9-1-.5-1.8-1.3-2.4-2.5-.5-1-.7-2-.8-3.2a20.1 20.1 0 0 1 1.4-6.7 32.9 32.9 0 0 1 13.4-15.6 20.7 20.7 0 0 1 8-3.1c1-.2 2-.3 3-.2 1 .1 1.8.6 2.3 1.5.5.7.7 1.4.6 2.1a7 7 0 0 1-.5 2.2 9 9 0 0 1-1 2L726 181a18.8 18.8 0 0 1-3.9 3.2 37.7 37.7 0 0 1-9.2 4l-1.7.3c-.7 0-1.2.2-1.5.6-.4.4-.7 1-.9 1.7l-.7 2-.7 2.3c-.2.8-.2 1.7-.1 2.5"/><path d="m737 195.4-4.7 5.2a22 22 0 0 1-2.2 2c-.8.6-1.7 1-2.7 1.2-1.2.3-2.2.3-3 0-1-.2-1.6-.7-2.1-1.3-.5-.7-.8-1.5-1-2.5-.1-1 0-2 .2-3 .5-2 1.2-3.8 2.2-5.5a109.2 109.2 0 0 1 6.2-10 31.4 31.4 0 0 0 3.1-7c.1-.6.4-1 .8-1.4.4-.2.8-.4 1.4-.4l1.4-.2a64.4 64.4 0 0 1 3.1-.4c.6 0 1 .2 1.2.5.1.4.2.8.1 1.2a262 262 0 0 0-.9 2.7 36 36 0 0 1-2.7 5.5 210.3 210.3 0 0 1-6.4 10.3c-1 1.8-1.9 3.6-2.6 5.5-.3.8-.3 1.5.3 1.9.5.4 1.2.4 2-.1a51.2 51.2 0 0 0 10-12.1 97.6 97.6 0 0 0 7.7-13.9c.2-.6.5-1 1-1a290.6 290.6 0 0 0 5.3-.7c.5 0 .9.3 1 .7.1.5 0 1-.1 1.7a66 66 0 0 1-4.1 7.6l-3.4 5.6a85 85 0 0 0-3.1 5.7l-1 2.7c-.3 1-.5 1.9-.5 2.7.1 1 .6 1.6 1.4 1.7.8.1 1.6 0 2.4-.4.9-.4 1.7-1 2.4-1.7.8-.6 1.5-1.4 2.2-2.2a36 36 0 0 0 3.4-5 53 53 0 0 0 5.3-11.7c.3-1 .4-2 .4-3 0-.5-.1-1-.3-1.3v-1.2c0-.5.2-1 .4-1.4.3-.5.7-.8 1-1.1.5-.4 1-.6 1.4-.7.5 0 1 0 1.4.2.5.2.9.6 1.1 1 .2.4.4.9.4 1.4v1.6a66.6 66.6 0 0 1-1.3 5l-1.6 3.2a64.3 64.3 0 0 1-13.8 17.8 14.5 14.5 0 0 1-6.2 3c-1 .3-2.1.3-3.1 0a4 4 0 0 1-2.6-1.7c-.6-1-1-2-.9-3.2v-3.5"/><path d="M771 186.9c1.7-.1 3.2-.6 4.6-1.6a44.3 44.3 0 0 0 5.6-4.7 14 14 0 0 0 2.4-3.9c.4-.7.6-1.4.5-2 0-.6-.2-.9-.5-1l-1 .1c-.5.2-1 .4-1.4.8a16.3 16.3 0 0 0-3.2 2.9c-1.4 1.4-2.6 3-3.7 4.5L771 187m-3.5 10.7c.2 1 .6 1.8 1.2 2.1.6.4 1.3.5 2.2.4.8 0 1.6-.3 2.5-.7.8-.4 1.6-.7 2.1-1.1 1.4-.8 2.7-1.9 4-3.2a66.7 66.7 0 0 0 7-7.8l2.3-2.7c.4-.4.6-.5.7-.2.1.2.1.5 0 .8-.2.8-.7 1.6-1.4 2.6a37.6 37.6 0 0 1-5.8 6.8 61.9 61.9 0 0 1-9 7.5 12.5 12.5 0 0 1-6.5 1.7c-1.1 0-2.2-.4-3.1-.9-1-.5-1.8-1.3-2.4-2.5-.4-1-.7-2-.7-3.2a20.1 20.1 0 0 1 1.4-6.7 32.9 32.9 0 0 1 13.4-15.6 20.7 20.7 0 0 1 8-3.1c1-.2 1.9-.3 3-.2 1 .1 1.8.6 2.3 1.5.4.7.6 1.4.6 2.1a7 7 0 0 1-.5 2.2 9 9 0 0 1-1.1 2l-1.4 1.6a18.8 18.8 0 0 1-4 3.2 37.7 37.7 0 0 1-9.1 4l-1.7.3c-.7 0-1.2.2-1.5.6-.4.4-.7 1-1 1.7-.1.8-.4 1.4-.6 2-.3.7-.6 1.5-.7 2.3-.2.8-.3 1.7-.2 2.5"/><path d="m815.2 152.2-6 10.5-6 10.4-6.2 10.6a224.6 224.6 0 0 0-6.7 12.4c-.4.8-.5 1.4-.4 2 0 .5.2.8.6 1 .5.2 1 .2 1.8-.2 1.3-.7 2.5-1.6 3.6-2.7a36 36 0 0 0 5.5-7 423.8 423.8 0 0 0 3-4.9c.4-.5.8-.8 1.1-.8.2 0 .4.1.4.4v.7l-.2.7-.3.5a80 80 0 0 0-3.6 5.3 55 55 0 0 1-4 5.3 28 28 0 0 1-4.7 4.5 14 14 0 0 1-5.8 2.6c-1.7 0-2.8-.3-3.4-1.3-.7-.9-1-2-1-3.4a22.5 22.5 0 0 1 2-7.5c1.4-2.9 3-5.7 4.7-8.5a1578.7 1578.7 0 0 0 17.3-29.3l.2-1v-.9l.1-.9 1.3-.2a104.8 104.8 0 0 1 6.3-.7c.3.1.5.5.5 1.1l-.1 1.3"/><path d="M825.8 185c.1.4 0 1-.5 1.7a232.2 232.2 0 0 1-9.5 12.1 34.2 34.2 0 0 1-4.6 3.6c-.8.5-1.7.9-2.7 1-.9.2-1.8.1-2.6-.3a4.1 4.1 0 0 1-2.2-2.3 7 7 0 0 1-.3-3.2c.1-1.1.4-2.2.9-3.3l1.3-3c.7-1.1 1.4-2.2 2.3-3.2a64.2 64.2 0 0 1 5.4-6l2.5-3H814a3 3 0 0 1-1.8-.2l-1.3-.4c-.3-.2-.7 0-1.2.3l-4 6.7a97.2 97.2 0 0 1-9.5 13 27 27 0 0 1-6 5c-.7 0-1-.2-1.2-.6-.2-.4 0-.8.2-1.2 2.7-1.7 5-3.7 7.2-6 2-2.3 4-4.8 5.8-7.4 1.7-2.7 3.3-5.4 4.8-8.2l4.5-8.3h.7c.3 0 .6.1.8.3l.8.5.6.5a6 6 0 0 0 3.7.5l2.4-.7 2.3-.6c.6 0 1 0 1.1.2.2.2.2.5.2.8l-.5 1-.6 1a91.7 91.7 0 0 0-10 15 29 29 0 0 0-1.8 3.8 6 6 0 0 0-.2 2c0 .5 0 1 .3 1.7.2.6.5.9 1.1.8.8-.2 1.7-.7 2.7-1.6a32.9 32.9 0 0 0 6-7.1 267.8 267.8 0 0 1 3.5-5c.3-.3.7-.3 1.2.1"/><path d="M830.8 198.8a51.6 51.6 0 0 1-5 3.8c-.8.5-1.8 1-2.8 1.2a6 6 0 0 1-3 .1c-1-.2-1.8-.7-2.2-1.3a5 5 0 0 1-1-2.2 8 8 0 0 1 0-2.6c.2-1 .4-1.8.7-2.5.7-1.7 1.5-3.4 2.4-5a190 190 0 0 1 5.8-9.2 55 55 0 0 0 3-5.7l.4-1.1.5-1c.2-.4.4-.7.8-.8.9 0 1.8 0 2.8-.2 1-.2 1.9-.2 2.8 0 .5 0 .7.2.8.6l-.1 1.2-.6 1.2-.5 1.1c-1.1 2.3-2.3 4.6-3.7 6.7a1421.7 1421.7 0 0 1-4.7 7.9 41 41 0 0 0-3.2 7.4c-.2.7-.2 1.2 0 1.6 0 .3.5.4 1 .1 2.5-.9 4.6-2.2 6.4-4.1 1.8-1.9 3.4-4 4.9-6.2 1.4-2.3 2.8-4.7 4-7.2 1.3-2.4 2.5-4.8 3.9-6.9l.4-1.4v-1.4c.3-.4.6-.6 1-.6l3.3-.3h3.5v1.7c0 .6-.2 1.2-.5 1.7-.5 1.3-1.1 2.4-2 3.6l-2 3.3a245.4 245.4 0 0 1-11.2 19.1l-3.5 6.2c-1.2 2-2.6 4-4 5.7a33.6 33.6 0 0 1-10.9 8.2c-2 1-4.2 1.6-6.4 2l-3.2.3c-1.2 0-2.4 0-3.5-.2a9.4 9.4 0 0 1-3.2-1.2c-1-.5-1.6-1.4-2-2.5a5 5 0 0 1 0-2.9 4 4 0 0 1 1.8-2.2c.8-.5 1.7-.6 2.7-.2 1 .3 1.5 1 1.8 2 0 .5 0 1-.2 1.4l-.6 1.3c-.2.4-.3.8-.2 1.2 0 .4.3.8.8 1.2.5.3 1 .6 1.5.7h1.8a12 12 0 0 0 3.2-.9c2.3-1.1 4.3-2.6 6-4.3 1.8-1.7 3.4-3.6 4.9-5.6 1.4-2 2.8-4.2 4-6.3l3.3-6.5"/></g><g fill="#fdc31e"><path d="M124.3 6.5c-2 0-3.8-1.5-3.8-3.3a3.8 3.8 0 0 1 3.8-3.2c2 0 3.5 1.5 3.5 3.2 0 1.8-1.5 3.3-3.5 3.3"/><path d="M244.3 124.8c1.7 0 3.2 1.5 3.2 3.2 0 1.8-1.5 3.3-3.3 3.3-2 0-4-1.8-3.7-3.3 0-1.8 1.8-3.3 3.8-3.3"/><path d="M123.5 249.8c2.3 0 3.5 1.2 3.5 3.2-.3 1.8-1.8 3-3.8 3-2 0-3.7-1.5-3.5-3.3 0-1.7 1.5-3 3.8-3"/><path d="M3.5 124.8c2 0 3.5 1.5 3.5 3.2 0 1.8-1.5 3.3-3.5 3.3S0 129.7 0 128c0-1.8 1.5-3.3 3.5-3.3"/><path d="M171.5 77.2c-1.5 0-2.8-1-2.8-2.2 0-1.3 1.3-2.3 2.8-2.3 1.5 0 2.5.8 2.5 2.3 0 1.2-1 2.2-2.5 2.2"/><path d="M76 183.3c-1.3 0-2.5-1-2.5-2 0-1.6 1-2.6 2.5-2.6s2.8 1 2.8 2.3c0 1.3-1.3 2.3-2.8 2.3"/><path d="M171.3 183.3c-1.8 0-2.8-.8-2.8-2 0-1.6 1-2.6 2.5-2.6s2.5 1 2.5 2.3c0 1.5-.8 2.3-2.3 2.3"/><path d="M76.3 77.2c-1.3 0-2.3-1-2.3-2.2 0-1.5 1-2.3 2.5-2.3s2.5.8 2.5 2.3c0 1.2-1 2.2-2.8 2.2"/><path d="M124 42s-.5 2.7-3.8 4.5c0 0 3 2.5 3.8 4.7 0 0 1.5-3.2 3.8-4.7 0 0-3-1.5-3.8-4.5"/><path d="M123.5 204.8s-1.5 3.2-3.8 4.7c0 0 2 .8 3.8 4.5 0 0 1.8-3.8 3.8-4.5 0 0-2-1-3.8-4.8"/><path d="M128.5 127.8a10.7 10.7 0 0 1-8.3 3.2l-2.7-.5-.5-.3.3-.4c2.2-3 7.7-4.6 11.2-3.3l.8.3-.8 1M140 137c-.5-.5-.8-1-.8-1.8-.7-3.2-1.7-6-4.2-8.2l-1.5-1.3.5-2.2c1-2.5 1-5.3 0-8-.3-.5-.3-1 .3-1.8.7-1 .4-3-.3-4-1-1.2-2.5-1.7-3.8-1.2a3.5 3.5 0 0 0-2.4 3.3c-.3 1.5.7 3 2.2 3.5.8.2 1 .5 1.3 1.2.7 2.3.7 4.3 0 6.5-.3 1-.6 1.3-1.6 1-5.2-1.5-10-.8-14 3.3-1.7 1.7-1.7 1.7-3.7 0l-.3-.5a11 11 0 0 1 1.3-15.3c1.3-1 2.5-2.5 4.8-1.5 1.7 1 3.7-.3 4.5-2.3.5-1.7-.5-3.7-2.5-4.5-1.5-.5-3.5.3-4 2-.5 1.5-1.5 2-2.5 2.5-3.3 2-5.5 4.8-6.3 8.5a13.8 13.8 0 0 0 5.8 15.3l-.3 1-.8 3a13.7 13.7 0 0 0 10.3 15c1.3.3 2.3.8 3.3 1.5 1 1 2.2.8 3.5.3 1.2-.6 2.2-2 2-3.6 0-1.2-1.3-2.7-2.8-3-1.3-.4-2.8 0-3.8 1.6-.5.4-.7.7-1.5.4a11 11 0 0 1-8.2-11v-1c.3-2.4.5-2.7 3-2.2 3.5.8 6.8.5 9.8-1.3 1.5-1 3-2 4-3.2.2-.5.4-1 1.2-.5 1.5 1.5 2.8 3.3 3.5 5.3.3 1 .5 2-.8 3-1.7 1.2-1.7 3.4-.2 5 1.3 1.4 3.3 1.4 4.8.4 1.4-1.2 1.7-4 .2-5.2"/><path d="M208.5 126c0-1 .3-1.3 1-1.8 3.5-1.2 6.8-.7 9.8 1l3.7 2c1.8.8 1.8.8.3 1.3-2.8 1.3-5.3 3-8.3 3.8l-1.8.2-3.7-.8c-.8-.4-1-.7-1-1.7.5-1.3.5-2.8 0-4m22 3.5c-3.3 1.3-6 3.5-9.3 4.8-2 .4-4 1.4-6 1.7-2.7.5-5.2 0-7.4-1.5-.8-.5-.8-1-.3-1.5.3-.8.5-1 1.3-.8 4 2 7.7 1.3 11.2-1l5.3-2.4c.2-.3.7-.3.7-.8s-.5-.5-.8-.8l-6.4-3.2a11.1 11.1 0 0 0-9.8-.3c-.8.3-1.3 0-1.5-.5-.5-.7-.3-1.2.3-1.7l.7-.5c1.8-.5 3.3-1.3 5-1 2.3 0 4.3.5 6 1.3 4 1.2 7.3 3.7 11 5.5 3.3 1.2 4 1 0 2.7m-10 9.5c-.8 1.8-1.8 2.8-3.5 3.3-1 0-1.5.7-1.8 1.4-.7 1.6-3.4 3.3-5 3.3-.7 0-1-.5-1-1 .3-2.8-.7-5.5-2-7.8-.2-.4-1-1.4-.7-1.7.3-.3 1 .5 1.3.8 4 1.7 7.7 1.2 11.4.2.6-.3 1.3-.5 1.6 0 .4.5 0 1-.3 1.5m-13.3-21c1.3-2.5 2.6-5.3 2.3-8.3-.3-1.2-.3-1.2 1.3-.7 1.4.8 3.4 1.3 4.4 3.3.3.7.8 1.2 1.8 1.5a6 6 0 0 1 3.8 3.2c.2.5.7 1.5.4 1.8h-1.7c-2.8-1-5.8-1.5-8.5-.8l-3 .8c-.3.2-1.3 1-1.5.7-.3-.3.5-1.3.8-1.5m-3 15c-.3.3-.8.5-1.3 0-1.5-1.8-3.8-3-5.8-4.5-.7-.5-.4-.8 0-1l5.8-4.3c.8-.5 1-.5 1.5.3 1.3 1.3 1.5 2.8 2 4.5-.5 1.8-.8 3.5-2.3 5m-48.2-1.3c-2.8 2.3-4.8 5-6.8 8a25.3 25.3 0 0 0-4 8.3l-.2 2.8c-.3.7-.5 1-1.3 1.2-3.2 0-6.2 1.8-8.7 3.8-4 3-7 7-9.5 11.2l-1.5 2.8c-.3.7-.8.7-1 0-.8-2-1.8-3.6-3-5-2-3.3-4.5-6-7.3-8.6-2-1.7-4.2-3.2-6.7-3.7l-2.5-.5c-1 0-1.3-.5-1.5-1.3 0-5-2.8-9-5.5-13a25.8 25.8 0 0 0-6.3-6.4c-1-1-1.2-3-.2-4 2.8-2.8 5.5-5.5 7.8-8.8 2-3.3 4.2-6.8 4.2-11 0-.8.3-1.5 1.3-1.5 3.2 0 6-1.5 8.2-3.5 3-2.3 5.8-4.8 7.8-8 1.2-1.8 2.7-3.8 3.5-5.8.2-.5.2-1 .7-1 .5 0 .5.5.8.8 1.7 3.7 4 7 6.7 10 3 3.3 6.3 6 10.5 7.3l2.3.2c.7 0 1 .5 1.2 1.3.3 4.5 2.3 8.2 4.8 11.7 2 3 4.4 5.5 7 8a3 3 0 0 1 1 2.3c.2 1.4-1 2-1.8 2.4M127.7 209l1 .8-.7.4c-2.3 1-4 4.6-4 4.6l-.5 1c-.5-.8-2.3-4.3-4-5.3l-1.3-.8 1.3-1.2c1.3-1 2.5-2.5 3.3-4.3l.7-1.2.8 1.3a13 13 0 0 0 3.5 4.7m5 2c3.4 1.3 6.4 3 8.2 6.5 1.3 2.8 3.8 4.3 6.3 5.8.4.2 1 .2 1 .7-.3.8-.8.5-1.3.5h-1c-3.5-.3-6.8-1.3-9.8-3.3-.7-.7-1.2-.4-2 0-1.7 1.6-4 1.8-6.2.6-1.8-.8-3.3-3.6-3-5.8.3-2.3 1.5-4 3.8-4.8 1.2-.4 2.7-.4 4-.2m.7 23c-4 1.3-6.5 4-8.5 7.5-1.5 2.5-1.5 2.5-3.3 0a30 30 0 0 0-4.2-5.3c-1.3-1.2-2.8-1.4-4.3-2.2a8.2 8.2 0 0 1-4.7-8.8c.5-1.4 1.5-2.2 2.5-3 .8-.4 1 .6 1.5.8.5 0 1 .5.8 1-.3 1.3-.3 2.3.2 3.3.8 1.7 2 3 4 3 .5 0 1 .2 1.3.7.2.8.7 1.5 1.5 1.8l2.7 3 .5 1 .5-1c.3-1 1.5-2 2.3-2.8l1.2-1c.8-.5.8-1.3 1-1.5.5-.5 1-.5 2.3-1 .7-.3 3.7-2.5 2.7-5-.5-1 .5-1.5 1-2 .8-.5 1.3-.3 1.8.3 1.7.7 2.2 2.2 2.2 4 0 3-2.3 6.2-5 7.2M122 220.2c1-1.4 2-1.2 2.8 0a8 8 0 0 0 6.2 3.6c1.5 0 1.8.4 1.8 1.7 0 2.3-3 4.5-5.3 4v.5c0 1.3-.5 1.5-1 2-1 .8-2 1.5-2.5 2.5l-.5.5-.5-.5-2.8-2.5c-1-.8-1.2-2.8-1.2-2.8s-2 .6-2.8 0c-1.7-.7-2.5-2.7-2.2-4.4.3-.8.5-1 1.3-1 3 0 5.2-1.3 6.7-3.6m-22.8 4.3c-.2 0-.7 0-.7-.5s.3-.5.8-.5c3.2-1.8 5.7-4 7.7-7.5 1.8-3.5 5.3-4.5 9-5.3 2.5 0 4.3 1.3 5.3 3.3 1 2 .7 4.3-.8 6.3-2.3 2.4-5.5 3.2-8.3 1-.5-.6-1-.6-2 0a16.8 16.8 0 0 1-11 3.2M119.5 47l-.8-.8 1-.5c1.8-1 3-2.2 3.8-4.5l.5-1.2.8 1.2a10 10 0 0 0 3.5 4.5l1 .8-1 .7a15.6 15.6 0 0 0-3.6 4.5L124 53l-.5-1.3c-1-1.7-2.5-3.2-4-4.7m-4-2c-2.3-.5-4.3-1.3-6-2.8-1.3-1-2-2-2.8-3.2-1.2-2.5-3-4-5.2-5.3l-1.8-1-2-.7a10.8 10.8 0 0 1 3.5-.8c3.8.5 6.8 1.3 9.5 3.5 1 .8 1.8.5 2.5 0 2.8-1.7 5-1.5 7.3.3 2 1.7 2.5 4.7 1.5 7-1.3 2.5-3.8 3.5-6.5 3m-.5-23.3c2.8-1 4.5-3 6.3-5.2 1-1 1.5-2.3 2.2-3.3.5-1 1-.7 1.5 0 1.3 2.3 2.8 4.3 4.8 6.3.7 1 2 1.5 3 2 3.4 1.2 5.7 3.5 6.2 7 .5 2-.5 4-2 5-.8.5-1.5.2-2-.3-.8-.2-.8-.7-.5-1.5a5.1 5.1 0 0 0-4.3-6c-.7 0-1.2-.2-1.4-1-.3-.7-1-1.2-1.6-1.7a6 6 0 0 1-2.5-2.5l-.5-1.3-.5 1.3c-1 2-3.7 2.7-4.7 5l-1 .2a4.8 4.8 0 0 0-4 5.8c0 .7.3 1.2-.8 1.7-.7.8-1.5.5-2.2 0-1.5-1-1.8-1.7-1.8-4-.2-3.2 2.3-6.5 5.8-7.5m7.3 1.5 2-2 1.7 2c1.5.8 2.5 2 2.3 4 2-1.5 4.7 0 5.2 2.3V31c0 1-.5 1.5-1.5 1.5-2.8-.3-5 1-6.5 3.2-1 1.5-2 1.5-3 0-1.5-2.2-3.5-3.5-6.3-3.2-1 0-1.2-.5-1.5-1.3-.5-2.5 1.8-5.7 5.3-4.2-.3-2 1-3 2.3-3.8m24.7 8.3h1.3l.7.5c0 .5-.3.5-.5.7-2 1-4 2-5.5 3.8l-2 3c-1.8 3.5-6.3 5.5-9.8 5.7-2.7 0-4.4-1.5-5.2-4-.8-2.2.3-5 2-6.2 2.3-1.8 4.8-2 7-.3.8.5 1.5.5 2.5 0 2.8-2.2 6-3 9.5-3.2m14.5 140.3c1 2.2 1.5 4.4 1.3 6.2 0 5.5-1.6 10-3.3 14.5l-1 2.3c-.3.7-.8.7-1 0-2.3-5-3.3-10-1.3-15.6 1-2.7 2.3-5.2 3.8-7.7.8-.8 1-.8 1.5.3m3-3.3c5.8-2 11-1.3 16.5 1.5a57 57 0 0 1 8.3 5c-.3.5-.8.5-1.3.5l-7.3.5c-3.7.3-7.2-1-10.4-2.3-2.3-1-4.6-1.7-6.3-3.4-.8-1-.8-1.3.5-1.8m-77 3.5c2.5 4 4.3 8.5 4.3 13.3 0 2.7-.5 5.2-1.5 7.7l-.8 1.8c-.3.7-.8.7-1 0A54 54 0 0 1 85 184c-.3-1.5-.8-3-.5-4.5-.5-2.5 0-5 1-7.3 0-.4.3-1.2 1-1.2.5 0 .8.8 1 1m-4.3-2c-2.5 2.8-6.2 3.8-9.7 5-3 1-6 .8-9.5.8l-5-.3c-.3 0-.8 0-1-.5a59.3 59.3 0 0 1 11-6.3c3.5-1.2 7-2 10.5-1l3.5.8c1 .5 1 .8.3 1.5M50 128.7c-2 1.3-4 2.6-5.5 4.3-.5.5-1 .3-1.5-.3-1-1.2-1.5-3-2-4.7.5-1.8 1-3.3 2-4.5.5-.8 1-.8 1.5-.3a28 28 0 0 0 5.5 4c.8.5 1 1 0 1.5m-9.3-9.7-1.2-.3c-1.8-.7-3.8-1.2-5.8-1.2s-3.7.8-5.7 1.3c-.5 0-1 .2-1.3-.3-.4-.3-.2-.8 0-1.3.8-1.7 2-2.7 3.8-3.5 1-.2 1.5-.7 2-1.7s3.5-3 5-3c.5 0 .8.5.8 1a16.5 16.5 0 0 0 2.5 9m-.5 19-1.8 4-.5 3.8c-.3 1.2.3 1.4-1.3 1-1.5-.6-3.5-1-4.5-3-.5-1-1.2-1.6-2.2-1.8a4.7 4.7 0 0 1-3.3-3.3c-.2-.4-.4-1 0-1.2.6-.5.8-.3 1.3 0 3.3.8 6.5 1.3 9.8.5l1.7-.8 1-.2-.3 1m-1.2-7.8c0 .8-.3 1.3-1 1.6-2.3.7-4.8 1-7.3 0-2.2-.8-4.2-2-6.4-3L23 128l1.3-.5c2.4-1.3 4.7-2.8 7.4-3.5.8-.5 1.6-.5 2.6-.5 1.2 0 2.7.5 4 1 .7.3.7.5.7 1.3a7 7 0 0 0 0 4.5m-17 2-6-3.6c-1.5-.7-1.5-.7 0-1.4 2.8-1.5 5.5-3.5 8.5-4.5 3.3-1.5 6.5-3 10.3-2.8 1.7 0 3.2.5 4.7 1.3.5.5 1.3.7.8 1.7s-1 1-1.8.8a10 10 0 0 0-10.3.7l-6 2.8c-1 .5-.7 1 0 1.5 3.3 1.2 6 3.2 9.6 4.2 2.2.8 4.4.3 6.7-.5.5-.3 1.3-.8 1.5.3.3.7.5 1.2-.5 2a11 11 0 0 1-10 .4c-2.5-1-5.3-1.4-7.5-3m64-47.7c-.8-2-1.3-4.3-1.3-6.3 0-4 .8-8 2.3-11.7l1.8-5c.2-.3.2-.8.7-.8.5 0 .5.5.5.8 1.3 3 2.5 6 2.3 9.2 0 5.3-2 9.8-4.8 13.8-.5.7-1.3.7-1.5 0m-2.5 2.7a15 15 0 0 1-7.5 1.5 20 20 0 0 1-10.5-3.2c-2.3-1-4.5-2.5-6.5-3.8l-.8-.5c.3-.5.5-.5.8-.5 4-.5 8-1.2 12-.2 3.8.7 7.5 2 10.8 4l2 1.7c.7.5.5.8-.3 1M155.8 72c-.3-2.8.4-5.5 1.2-8.3l1-2.5.5-.5.5.5a46 46 0 0 1 4.3 16.3c0 2.2-.3 4.5-1.6 6.7-.2 1-.7 1-1.4.3a28 28 0 0 1-4.6-12.5m8.6 13.5c1.2-1.3 3-2.3 4.7-2.8 4-1.5 8-3 12.3-2.5 2.4-.2 4.7.3 7.2.5.3 0 .8-.2 1 .3 0 .5-.5.5-.8.7-3.7 2-7.4 4.3-11.7 5.5-4.3 1.3-8.5 1-12.8-.7-.7-.3-.4-.5 0-1m70.8 40.8c-3.8-1.8-7-4.3-11-6l-.5-1c.3-3.5-1.5-5.5-4.5-7.3l-1.3-1a9.6 9.6 0 0 0-7-4.3c-1.7-.2-2.2-1-3-2.2-1.2-2-3-3.5-5.4-4.3a13 13 0 0 0-11.6 3.5 6.8 6.8 0 0 0-2.4 4.3c-.3 3.8 2.4 5.8 5.2 6.8 1 .2 2 .2 2.8-.5.4-.3.7-.8.4-1.5-.2-.8-.7-.8-1.4-.5l-1.8-.3c-2.8-1.3-3.3-4.3-1-6.5 1.8-1.8 4-2.8 6.5-3a6.6 6.6 0 0 1 6.5 3.8c1.8 3.7 1 7.2-1 10.7a20 20 0 0 1-5.5 6.5c-2.5 2-5 3.3-8.3 3h-27.4c-1.3 0-2.3-.5-3.3-1.3-4.8-3.2-8-7.7-10.5-13-1-2-1.8-4.2-1.5-6.7 0-.5 0-1 .5-1.5l12.8-14.8c.7-1 1.4-1 2.4-.7 2.6 1.2 5.3 1.7 7.8 1.7a28 28 0 0 0 12.5-3.7c3-1.5 5.8-3.8 9-4.8.8-.2 1.3-.5 1.3-1.2-.3-.8-.8-.8-1.6-.8l-6-.7a34 34 0 0 0-21.4 4c-.3.2-.6.5-.8.2v-1c.8-3.2.5-6.2 0-9.5-.8-5.2-3.3-10.2-5-15.2-.3-.5-.5-1-1.3-1-.4 0-.7.5-.7 1l-2 5.5-1.3 4c-1 7 1 13.2 5.3 18.7.8 1 .8 1.5 0 2.3L147 102.8c-.5.5-.8.5-1.3.5-3.2 0-6-1.3-8.2-3.3-4.5-3.5-8-7.8-11-12.5-1-1.5-1.5-2.8-.3-4.5 1-1.8 2.3-3.3 4-4.5 2.3-1.5 4.8-2.3 7.3-3.8 2-1.2 4-2.7 5.3-5 1.2-2.7.4-6-2.6-7.2-2-1-4-.8-6.2.2-1.8.8-2.5 2.3-2.8 4-.2 1 .8 2 1.6 2 1 0 1.4-.5 1.7-1.5.5-2.2 2.5-3 4.5-2.2 1 .5 1.3 1.5 1 2.2 0 1-.5 1.8-1 2.5l-3.8 3c-2.7 1.8-6 2.8-8.4 5-.3 0-.5.5-.8.3-.5-.3-.3-.5-.3-1V54.7c0-3.7 3-7.2 6.8-8 4.5-1 8.3-3 11-7 1.5-2.2 3.3-4.2 5.8-5.5l3.7-1c.5 0 1-.2 1-.7 0-.8-.5-.8-1-1-3.5-1-7-1.5-10.8-.3-1 .3-1.2 0-1-1.2.3-1.3 0-2.5-.2-3.8-1-2.7-2.8-4.7-5.3-6-1.4-1-3.2-1.7-4.7-3-2-1.7-4-3.7-5-6.5-.3-.7-.5-1.2-1.5-1.2-1-.3-1.8.2-2.3 1.2-1.2 3.3-3.5 6-6.7 7.8l-4.5 2.7c-2.8 2.3-4.5 5-4 8.5.3 1.5 0 1.8-1.5 1.3-3.5-1-7-.5-10.5.5-.3.2-.8.5-.8 1l.8.7h1a13 13 0 0 1 8.3 5.8 16 16 0 0 0 12 7.7c3 .5 6.2 4.5 6.2 7.5a6519.5 6519.5 0 0 1-.3 22.8l-.2 1c-.5.2-.8-.3-1-.5l-2-1.3-8-4.7c-1.5-1-2.8-2.3-3-4-.5-1.3 0-2 1.3-2.5 2-.8 3.7 0 4.2 2.2.3 1 .8 1.8 1.8 1.5 1.2-.2 1.5-1 1.2-2 0-1-.3-1.7-.8-2.7-1.5-1.8-5-2.5-7-2-3.5 1-5 4.2-3.2 7.7 1.5 3 4.3 4.8 7.3 6.3 2.2 1.2 5 1.7 6.7 3.7 2.5 3.3 3.8 4.5.8 8-2.5 4.5-6 8-9.8 11.5a15.9 15.9 0 0 1-5.5 3.5c-1.8.5-3.5 1-5-1L95 96l-7-8.3c-.5-.5-.3-1 0-1.5l2-2.7c3.8-5.8 5-12 3.3-18.5-.8-2.8-2-5-2.5-7.5-.3-.5-.5-1-1-1a1 1 0 0 0-1 1c-1.5 3.2-3 6.5-4 10.2a26 26 0 0 0-1.3 14.5v1c-.3.3-.8 0-1-.2-2.3-1.3-4.5-2-7-3-1.8-.5-3.8-1.3-5.8-1.3-5-.2-10 .5-15 1-.5 0-1 .3-1 .8-.2.7.3.7.8 1 1 .7 2.3.7 3.3 1.5 3.5 2 7 4.2 11 5.7 3.2 1.3 6.5 1.8 9.7 1.3 2-.3 4-.8 5.8-1.5 1-.3 1.5-.3 2.2.5l11.3 13.3c.7.5 1.5 1.2 1.5 2.2 0 2.3-.3 4.5-1 6.5a35.3 35.3 0 0 1-10 13.5c-1.3.8-2.3 2-4 2H54.5c-1 0-1.8-.3-2.5-.8-3-1.7-5.8-4-8-7-1.8-2.5-3-5.5-3-8.7.3-3 2.3-6 4.8-7.3 3-1.2 8.2 1 10 3.5 1 1.3 1.2 2.5.2 4-1 1.3-2 2.3-3.8 1.8-.7 0-1.2.3-1.5.8-.2.7.3 1 .5 1.5.5.5 1.3.5 1.8.5 1.5.2 2.5-.5 3.5-1.3a6 6 0 0 0 1-9.3l-2-1.7c-5-3.5-12.3-4-16 2.8-.5 1-1 1.2-2.3 1.5a9 9 0 0 0-6.7 3.5l-2 2c-2.8 1.5-4.8 3.5-4.5 7 0 .5 0 .7-.5 1l-11 6c-.8.5-1.5 1-1.3 2 0 .7.6 1.2 1.3 1.4l.8.3c3.2 2 6.4 4.3 10 5.8.7.2.7.4.7 1.2-.3 2.8 1.3 4.8 3.3 6.3.7.7 2 .7 2.7 2 1.5 2.4 4 3.7 6.8 4 1.5.2 2.5 1 3.2 2.4a9 9 0 0 0 9.5 4.3c3-.5 5.8-2 7.8-4.3 2.2-2.2 2.5-4.4 1-7.2-1-2.3-4.5-3.8-6.5-3-.8.3-1.3.8-1 1.8 0 .7.7 1 1.5.7 1.5-.3 2.7.3 3.5 1.5.7 1 1 2.3.2 3.8-1.3 2.2-3.5 3-5.8 4-5 1.7-8.7-2.3-9.2-6.6-.3-2.7.5-5.2 1.8-7.4 2.2-4.3 5.7-7 10-9.3l1.5-.5h29.5c.7 0 1.2.3 1.5 1.3 0 .4.5 1 1 1.2l5 4.3c2.2 2.2 4 5 5.5 7.7 1 2 2 4.3 2.2 6.5.3 1 0 1.8-.5 2.3L94 158l-6.8 7.8c-1.7 2.2-1.7 2.2-4.5 1.4l-.5-.2c-6-2-11.7-1-17.2 1.8-3.8 2-7 4.2-10.8 5.7-.5.3-1 .3-.7 1 0 .5.5.8 1 .8l1 .2c3.5.5 7 .5 10.8.8 3 .2 6.2-.3 9.2-1.6 2.3-.7 4.5-1.4 6.8-2.7h.7c.5.3.3.5.3 1l-.8 2.5c-.3 4 .5 7.8 1.5 11.5l4 10.5c.3.5.5 1 1.3 1 .7 0 .7-.5 1-1l2.5-7.8c1-3.4 1-6.7.2-10.2-.8-4-3-7.5-5.3-10.8-.5-.4-.5-1 0-1.4L98 156.4c1-1.5 2-2 4-1.8 3.3.3 5.5 1.6 7.8 3.6 4.7 3.4 8.2 8.2 11.2 13 .5.7.5 1.2.3 2a12 12 0 0 1-5 5c-2.5 1-5.3 2.4-7.5 4a11 11 0 0 0-4 4.2c-1.3 2.8-.5 5.3 1.7 6.8 2.3 1.4 6.5 1 8.5-1 .8-.8 1.3-2 1.3-3.3 0-1-.5-1.5-1.5-1.5-.8-.3-1.5.3-1.8 1.3 0 1.7-1.3 2.4-2.8 2.7-2.2 0-3.5-1.8-2.5-3.8 1.3-2.4 3.3-3.7 5.5-5 2.3-1.2 4.8-2.2 7-4 .3-.2.8-.7 1.3-.4.5.2.3.7.3 1.2v22c0 3.8-3 7.3-6.8 8-4.5.8-8.3 2.8-10.8 6.8-2.5 3.4-5.2 6.2-9.7 6.4-.5.3-1 .3-1 1 0 .6.5.6 1 .8 3.5 1.3 7 1.5 10.5.5 1.3-.5 1.5-.3 1.3 1.3v2.4c.7 3.8 3.2 6 6.2 7.6 4 2.2 7.5 4.7 9 9.2.3.8 1 1.3 1.8 1.3.7 0 1.5-.3 1.7-1l.8-1.8c1.2-2.3 2.7-4 4.7-5.5l5.5-3.3c3-2.2 5-5 4.5-9.2-.3-1 .3-1.3 1.3-1h.4c3.6.8 7 .8 10.6-.8.2 0 .7-.2.4-.7l-.4-.5-.8-.3c-3.5-.4-6-2-8-4.7l-2.8-3.8a15.5 15.5 0 0 0-9.4-5 8.2 8.2 0 0 1-6.6-7.4v-22.6c0-.2 0-.7.5-1 .5-.2.8.3 1 .6l.8.4c2 1.6 4.5 2.3 6.5 3.8 2 1.3 4.3 2.3 5.3 4.8.4.7.7 1.7.2 2.4a4 4 0 0 1-2.8 1.3c-1.7-.3-2.2-.8-2.7-2.8-.3-1-.8-1.4-1.8-1.2-1 0-1.4.8-1.2 1.8 0 .7 0 1.7.8 2.4 1.4 2 5.7 3 8 2 2.4-1.2 3.4-3.4 3-5.4-.3-1.6-1-2.8-2-4a22 22 0 0 0-7.6-5c-2.4-1-4.7-2.3-6.4-4.8-1.3-1.8-1.3-2.3-.3-4 3-4.5 6.3-8.8 10.5-12.3 2.3-1.7 4.8-3.4 8-3.4.5.2 1 0 1.5-.3.8-.3 1.3 0 1.5.5l11.5 13.5c.5.3.5.8 0 1.3-2 2.7-3.8 5.7-5 9.2-.8 3-1.3 6.3-.8 9.5.6 3.5 2.3 6.8 3 10.3.3.4.6.7 1 .7.6 0 1-.3 1.3-.8l4.3-11.4c1-3.6 1.4-7 1.2-10.6l-.5-3 .3-1 .4.3 5.3 2.3c2 .7 3.8 1.4 5.8 1.7 4.4.8 9 0 13.2-.3l3.5-.4c.5 0 1.3-.3 1.3-.8 0-.8-.6-1-1-1-3.8-1.5-6.8-3.8-10.3-5.5a22.3 22.3 0 0 0-19.5-1.5c-.8.3-1.3.3-1.8-.3l-3.4-4-8-9.2c-1.6-1.8-2.3-3.5-1.3-5.8A33.4 33.4 0 0 1 161 132c.3-.3.8-.8.8-1.3.2-1 1-1.2 1.7-1.2a11131.8 11131.8 0 0 0 31.8.5 29 29 0 0 1 9.2 9c2 3.8 2.8 7.3 1 11-1.3 2.3-4 4-6.3 3.8-2.7-.6-5.2-1.6-7.2-3.6-1-1.2-1.5-2.7-.8-4 .8-1.7 2-2.4 3.8-2.2.8.3 1.5.3 1.8-.8.2-1-.6-1.4-1.3-1.7-1.5-.3-3 0-4.3.8a6.4 6.4 0 0 0-1 10c2 1.4 4 2.4 6.3 3.2 4.3 1.5 9-.3 11.3-4.3.4-1.2 1.2-1.7 2.7-1.7 3-.5 5.5-1.8 7-4.5l1.3-1c2.4-1 4.4-3 4.4-5.8 0-2 1-2.4 2.8-3.4l9-5c.8-.6 1.5-.8 1.5-1.8s-.8-1.5-1.5-1.8"/></g></svg>