<svg xmlns="http://www.w3.org/2000/svg" width="1024" height="1024" viewBox="0 0 1024 1024"><path fill="#fff" d="M0 0h1024v1024H0z" style="-inkscape-stroke:none"/><g fill="#1d1d1b"><path d="M132 738.9h.3l.3.2c2.5.8 5.1 1.2 7.8 1.3a10.8 10.8 0 0 0 9.6-6.7c.8-1.5 1.2-3.4 1.2-5.6v-8.5a5 5 0 0 0-1.5-3.5c-1-1-2.4-2-4.1-2.9-1.8-.8-3.8-1.6-6.2-2.4l-7.4-2.1zm-10-84.5a10.8 10.8 0 0 0-6.9 2.8 12 12 0 0 0-4 9.3v12c0 1.8.6 3.4 1.6 4.9 1 1.4 2.4 2.7 4.1 3.9 1.7 1.1 3.8 2.2 6.1 3 2.3 1 4.8 1.7 7.5 2.4v-36.9h-.5a28.8 28.8 0 0 0-8-1.4m6.5 94.5H126a29.5 29.5 0 0 1-19.3-7 31.1 31.1 0 0 1-6.5-8 37.1 37.1 0 0 1-4-10 12.2 12.2 0 0 1 3.6-12c1.6-1.5 3.6-2.7 6-3.6 2.4-.8 5-1.2 8-1.2-1.5.8-2.3 2-2.5 3.5-.2 1.5-.2 2.8 0 4a37.4 37.4 0 0 0 6.3 14.2c3 4.1 7.1 7.3 12.3 9.4h.4v-29.9c-4-1-7.9-2-12-3.2a69 69 0 0 1-11-4c-3.3-1.5-6-3.4-8.2-5.5a10.7 10.7 0 0 1-3.2-7.9v-18.2h.1c.2-.7.8-1.5 2-2.7l4.3-3.7a145.6 145.6 0 0 1 11.5-8.3 1252.6 1252.6 0 0 1 9.8-6.2l1-.5a14.3 14.3 0 0 1 3.4-1.2l2.3-.5v-.1a11.5 11.5 0 0 1 1.6-.2 29.4 29.4 0 0 1 23.5 6.8c2.6 2.2 4.7 4.8 6.5 8 1.8 3 3.1 6.4 4 10a12.2 12.2 0 0 1-3.6 12 17.2 17.2 0 0 1-5.9 3.6c-2.4.8-5 1.2-8 1.2 1.4-.8 2.2-2 2.5-3.5a11 11 0 0 0 0-4c-1.1-5.3-3.2-10-6.3-14.2-3-4.2-7.2-7.3-12.4-9.4l-.3-.2v36.7l12 2.9 11 3c3.4 1.1 6.1 2.4 8.2 3.9 2.1 1.4 3.1 3.3 3.1 5.4v17c-.2.7-.9 1.5-2 2.7a146.8 146.8 0 0 1-15.8 12 1245.1 1245.1 0 0 1-8.2 5.3l-.9.4-.8.4-1 .4-1 .5a19.1 19.1 0 0 1-4.6 1.4v4a3 3 0 0 1 1.9 1.2c.4.7.7 1.4.7 2.1 0 .5-.2 1-.6 1.8a24 24 0 0 1-2.8 4.3l-1.6-2.3c-.5-.7-1-1.3-1.3-2-.3-.7-.5-1.3-.5-1.8 0-.7.2-1.4.7-2 .5-.7 1-1 1.9-1.2v-3.9a25 25 0 0 1-2 .3"/><path d="M184.5 718c0 3.4 1.2 6.2 3.6 8.3 2.4 2.2 5.3 3.2 8.6 3.2h2.2v-32.3l-14.4 5.2zm14.4-28.5c0-3.4-1.2-6.2-3.6-8.4a12.4 12.4 0 0 0-8.6-3.3h-1c-.4 0-.8 0-1.2.2h-.1v9.6c0 1.4 0 2.5.3 3.4l.6 2c.3.5.5 1 .8 1.1-3.6 0-6.5 0-8.7-.3-2.2-.2-3.8-.6-5-1-1.2-.5-2-1-2.3-1.7-.4-.7-.6-1.5-.6-2.3v-7.3a6913.6 6913.6 0 0 1 30-9.6h.8l.7-.1c1.5 0 3 .3 4.4 1a15.2 15.2 0 0 1 6.8 5.9c.8 1.3 1.3 2.7 1.5 4.1l.3 2.4V718c0 1.6.1 3.3.4 4.9.3 1.6.9 3.1 1.6 4.5a8.9 8.9 0 0 0 3 3.2c1.2.9 2.8 1.3 4.7 1.3l-3.7 1-4.2 1.3a63.9 63.9 0 0 1-6.7 1.4c-.8 0-1.6-.1-2.5-.4a15.5 15.5 0 0 1-7-4.5 898.4 898.4 0 0 0-14.6 4.7h-1c-.3.2-.6.2-.8.2h-.8c-1.5 0-3-.3-4.4-.9a14 14 0 0 1-8.4-10 11 11 0 0 1-.2-2.6V705l29.5-10z"/><path d="M245.2 675.6a56.8 56.8 0 0 1 7.8-2.3 64 64 0 0 1 6.7-1.4h.6a10 10 0 0 1 4.7 2.2c1.2 1.1 2.2 2.4 3 3.8.7 1.4 1.2 3 1.4 4.8.3 1.7.5 3.4.5 5v35.8c0 2.2.7 4 2.1 5.5a8.3 8.3 0 0 0 5.5 2.4l-3.6 1.2-4.2 1.3a130.5 130.5 0 0 1-6.1 1.7h-1.2c-1 0-2.1-.1-3.1-.4-1-.3-2-.8-2.6-1.7-1-1-1.6-2.4-1.8-4a44.3 44.3 0 0 1-8 3.7 902.2 902.2 0 0 1-6 2.2 62.7 62.7 0 0 1-2.8.3c-.8 0-1.9-.1-3.3-.5-1.4-.3-2.8-1-4.2-2.1a13.7 13.7 0 0 1-3.6-4.8c-1-2.1-1.5-5-1.5-8.5V689c0-1.5-.2-3.1-.5-4.7a15 15 0 0 0-1.7-4.4 8.3 8.3 0 0 0-7.6-4.4 56.8 56.8 0 0 1 7.9-2.3 91.5 91.5 0 0 1 5.3-1.3l1.4-.1h.5c1.8.3 3.2 1 4.4 1.9 1.1.9 2 2 2.8 3.3.7 1.3 1.3 2.6 1.7 4.1.4 1.5.6 3 .7 4.6V718c0 2.2.3 4 .8 5.4a8 8 0 0 0 5.1 5c1.1.4 2.2.6 3.3.6a14.2 14.2 0 0 0 5.3-1v-38.5c0-1.6-.1-3.3-.4-5-.3-1.5-.9-3-1.6-4.4a9 9 0 0 0-3-3.2 8.6 8.6 0 0 0-4.7-1.3"/><path d="M310 689.3c0-3.5-1.2-6.3-3.6-8.4a12.4 12.4 0 0 0-8.6-3.3h-1.1l-1.1.1V718c0 3.4 1.2 6.2 3.6 8.4 2.4 2.2 5.3 3.3 8.6 3.3h1.1c.4 0 .7 0 1.1-.2zm-1.6-17 .9-.3.7-.2v-15.6a6 6 0 0 0-.7-2.3 8.8 8.8 0 0 0-6.9-4.2 561.2 561.2 0 0 1 11.7-3.9c.9-.2 1.1-.3.8-.1h.2l2.6-.3c2.1 0 3.8.5 5.1 1.6 1.4 1.2 2 2.9 2.2 5.1v66c0 1.7.2 3.3.5 5 .3 1.5.8 3 1.6 4.3a9 9 0 0 0 3 3.2c1.2.9 2.7 1.3 4.6 1.3a75.6 75.6 0 0 1-11.3 3.3c-1.3.4-2.3.5-2.9.5l-1-.1c-1.7-.4-3.2-1-4.4-2-1.1-1-2-2-2.7-3.4h-.2l-.7.3a156.3 156.3 0 0 1-18.1 5.2c-1.5 0-3-.3-4.3-1a15.4 15.4 0 0 1-6.8-5.9 11.3 11.3 0 0 1-1.8-6.6v-41a253 253 0 0 1 14.3-4.7 645.7 645.7 0 0 1 13.6-4.2"/><path d="M349.1 718c0 3.4 1.2 6.2 3.7 8.3 2.4 2.2 5.2 3.2 8.6 3.2h2.2v-32.3l-14.5 5.2zm14.5-28.5c0-3.4-1.2-6.2-3.6-8.4a12.4 12.4 0 0 0-8.6-3.3h-1.1c-.4 0-.8 0-1.2.2v9.6c0 1.4 0 2.5.2 3.4.2.9.4 1.5.7 2 .2.5.5 1 .8 1.1-3.7 0-6.6 0-8.8-.3-2.1-.2-3.8-.6-5-1-1.1-.5-1.9-1-2.3-1.7-.4-.7-.6-1.5-.6-2.3v-7.3a6917 6917 0 0 1 30-9.6h.8l.8-.1c1.5 0 3 .3 4.3 1a15.2 15.2 0 0 1 6.9 5.9c.7 1.3 1.2 2.7 1.5 4.1l.2 2.4V718c0 1.6.2 3.3.5 4.9.3 1.6.8 3.1 1.5 4.5a8.9 8.9 0 0 0 3 3.2c1.2.9 2.8 1.3 4.8 1.3l-3.8 1c-1.4.5-2.8 1-4.1 1.3a63.9 63.9 0 0 1-6.8 1.4c-.8 0-1.6-.1-2.5-.4a15.5 15.5 0 0 1-7-4.5 898.5 898.5 0 0 0-14.6 4.7h-1c-.3.2-.5.2-.8.2h-.8c-1.4 0-2.9-.3-4.3-.9a14 14 0 0 1-8.5-10 11 11 0 0 1-.1-2.6V705l29.5-10z"/><path d="M408 735a10.5 10.5 0 0 1-8-.2 15.4 15.4 0 0 1-6.9-6c-.8-1.3-1.3-2.7-1.6-4.2a326.8 326.8 0 0 0 0-10.9V681.5a495.1 495.1 0 0 1 28.8-9.4l1.1-.2h.8l.8-.1c1.4 0 2.9.3 4.3 1a15.2 15.2 0 0 1 6.8 5.9 12.2 12.2 0 0 1 1.7 6.6v2.4l-17 7.3a7 7 0 0 0 1.5-2 8 8 0 0 0 .6-3.5c0-3.4-1.2-6.2-3.6-8.4a12.4 12.4 0 0 0-8.7-3.3h-1c-.4 0-.8 0-1.2.2v40c0 3.4 1.2 6.2 3.6 8.4 2.4 2.2 5.3 3.3 8.7 3.3h1c.4 0 .8 0 1.2-.2l15-5v1.5a245.3 245.3 0 0 1-14.3 4.8A435.6 435.6 0 0 1 408 735"/><path d="M468.5 689.5c0-3.4-1.2-6.2-3.6-8.4a12.4 12.4 0 0 0-8.6-3.3h-1.1c-.4 0-.8 0-1.2.2v24a166.7 166.7 0 0 0 9.1-5.7c1.5-1.1 2.8-2.3 3.8-3.5 1-1.2 1.6-2.3 1.6-3.3M454 718c0 3.4 1.3 6.2 3.7 8.4 2.4 2.2 5.2 3.3 8.6 3.3h1c.4 0 .8 0 1.2-.2l15-5v1.5a242 242 0 0 1-14.3 4.8 426.8 426.8 0 0 1-13.6 4.2 10.5 10.5 0 0 1-8-.2 15.4 15.4 0 0 1-6.9-6 11.3 11.3 0 0 1-1.7-6.6V681.5a495 495 0 0 1 29-9.4l1-.2h.8l.8-.1c1.5 0 3 .3 4.4 1a15.2 15.2 0 0 1 6.8 5.9c.7 1.3 1.2 2.7 1.5 4.1l.2 1.3v1.3c0 .7-.2 1.4-.6 2-.4.6-.9 1-1.5 1.4L454 703.6z"/><path d="M591.6 673.4a28.7 28.7 0 0 0-13.9-21.3l-.1-.1h-.2v51.6h.3a25 25 0 0 0 10.5-9.2c2.3-3.8 3.5-8.3 3.7-13.4 0-2.5 0-5-.3-7.6m-20.7 34v18l.2 4.5v4.5c0 1.4 0 2.8.2 4.2.2 1.3.5 2.7 1.2 4a8.5 8.5 0 0 0 2.7 4l.2.1.3.2v-39.7l-.1-.3-.7.2h-1.8c-.6 0-1.2 0-1.8-.2l-.4.1zm36.7-30.4v3.3a18.2 18.2 0 0 1-.2 2.9 24 24 0 0 1-3.8 9.4 30 30 0 0 1-7 7.2c-2.6 2-5.6 3.7-8.9 4.8a40.4 40.4 0 0 1-9.9 2.2c-.3 0-.4.2-.4.5v45c0 .2 0 .3.2.3a4 4 0 0 1 1.6 1.2c.7 1 .9 2 .5 3l-.5 1a47.9 47.9 0 0 1-2.5 4.1h-.2a19.5 19.5 0 0 1-2.8-4.3l-.3-.7c-.3-.7-.3-1.4 0-2 .2-.7.5-1.2 1-1.6.3-.4.7-.6 1-.7.2 0 .3 0 .3-.2V750h-.3a55 55 0 0 1-9.5 2.2 9.9 9.9 0 0 1-5.8-3c-1-1-1.8-2.2-2.4-3.6-.6-1.4-1-2.9-1.4-4.4-.2-1.6-.4-3-.4-4.6v-33.4c0-.3 0-.5-.2-.7-1-1.1-2.3-2.1-3.7-3l-2.4-.7c-.7 0-1.4 0-1.9.2s-1 .6-1.6 1.2c-.2.2-.4.5-.5 1l-.6 1.3-.3.3v-.3l.6-2.3a96.9 96.9 0 0 1 4-10 5 5 0 0 1 1.6-1.8 4 4 0 0 1 2.3-.7c.9 0 1.7.3 2.5.7l.2.2v-24.7c0-.5 0-1-.2-1.3a5.4 5.4 0 0 0-2.5-3.6c-1.3-.9-2.6-1.5-4-1.9h-.7l6-2 5.7-1.8a16.9 16.9 0 0 1 3.6-.5 7 7 0 0 1 3.4.8c1.9.8 3 2.2 3.5 4.3.2.4.2.8.2 1.1v46.2l.2.1h.6l.5-.1a116.5 116.5 0 0 1 3.3-.8l.2-.4v-52.6c0-.5-.6-1-1.9-1.4a34.5 34.5 0 0 0-9.2-1.9 33.5 33.5 0 0 0-13.4 1.3c-3.2 1-6 2.5-8.5 4.5a22.3 22.3 0 0 0-8.7 16.8 25.4 25.4 0 0 0 8 20.6l-15.6-6.6c-1.8-.7-3-1.8-3.9-3.2-.8-1.5-1.3-3.1-1.5-4.8l-.1-.5v-2l.1-.7c.3-4.6 1.6-8.6 3.8-12a30 30 0 0 1 8.3-8.3c3.3-2.3 7-4 11.2-5.2a66 66 0 0 1 12.2-2.4h3l.6-.2h4.2l.6.1h3a607.5 607.5 0 0 0 4.7.6l6 1c3.7 1 7.3 2.2 10.8 3.8 3.5 1.7 6.5 3.7 9.2 6.1a26.7 26.7 0 0 1 9 20"/><path d="m616.2 660.3 9.1-9.1 9.2 9-9.2 9.1zm26.7 71.6-3.8 1c-1.4.5-2.8 1-4.1 1.3a74.5 74.5 0 0 1-5.3 1.3 7 7 0 0 1-1.5 0h-.6a10 10 0 0 1-4.6-2.1c-1.3-1.1-2.2-2.4-3-3.8a18 18 0 0 1-1.4-4.8c-.3-1.7-.5-3.4-.5-5v-37a6 6 0 0 0-.6-2.5c-.6-1.1-1.6-2-3-2.9a8.8 8.8 0 0 0-4-1.3 87.8 87.8 0 0 1 15.8-4.2l1.2.1c1.7.4 3.1 1.1 4.1 2.2a6 6 0 0 1 1.5 4.3V718c0 1.6.2 3.3.5 4.9.3 1.6.8 3.1 1.6 4.5a8.9 8.9 0 0 0 3 3.2c1.2.9 2.8 1.3 4.7 1.3"/><path d="M675.4 689.5c0-3.4-1.2-6.2-3.6-8.4a12.4 12.4 0 0 0-8.6-3.3H662c-.4 0-.8 0-1.2.2v24a166.7 166.7 0 0 0 9.1-5.7c1.5-1.1 2.8-2.3 3.8-3.5 1-1.2 1.6-2.3 1.6-3.3M660.9 718c0 3.4 1.2 6.2 3.7 8.4 2.4 2.2 5.2 3.3 8.6 3.3h1c.4 0 .8 0 1.2-.2l15-5v1.5a242 242 0 0 1-14.3 4.8 422.4 422.4 0 0 1-13.6 4.2 10.5 10.5 0 0 1-8-.2 15.4 15.4 0 0 1-6.9-6 11.3 11.3 0 0 1-1.7-6.6V681.5a495 495 0 0 1 29-9.4l1-.2h.8l.8-.1c1.5 0 3 .3 4.3 1a15.2 15.2 0 0 1 6.9 5.9c.7 1.3 1.2 2.7 1.5 4.1l.2 1.3v1.3c0 .7-.2 1.4-.6 2-.4.6-.9 1-1.5 1.4L661 703.6z"/><path d="M708.5 671.9c1.5 0 3 .4 4.4 1a5 5 0 0 1 2.7 3.7 805.5 805.5 0 0 1 15.3-4.7h.8l.7-.1c1.9 0 3.6.4 5.3 1.3 1.6.8 3 2 4.3 3.2.8 1 1.4 2 2 3a12.1 12.1 0 0 1 1.4 6v2.4l-17.2 7.3a7 7 0 0 0 1.6-2 8 8 0 0 0 .5-3.5c0-3.4-1.2-6.2-3.6-8.4a12.4 12.4 0 0 0-8.6-3.3h-1c-.4 0-.8 0-1.2.2v40c0 1.6.2 3.3.5 4.9.3 1.6.8 3.1 1.5 4.5a8.9 8.9 0 0 0 3 3.2c1.2.9 2.8 1.3 4.8 1.3l-3.8 1c-1.4.5-2.8 1-4.1 1.3a72.8 72.8 0 0 1-5.3 1.3 7 7 0 0 1-1.5 0h-.6a10 10 0 0 1-4.6-2.1c-1.3-1.1-2.2-2.4-3-3.8a18 18 0 0 1-1.5-4.8c-.3-1.7-.4-3.4-.4-5V684l-.1-1.9-.5-1.7c-.6-1-1.6-2-3-3a8.5 8.5 0 0 0-4-1.3 522.5 522.5 0 0 1 14-4.2z"/><path d="M765 735a10.5 10.5 0 0 1-8-.2 15.4 15.4 0 0 1-6.8-6c-.8-1.3-1.3-2.7-1.6-4.2a326.8 326.8 0 0 0 0-10.9V681.5a495 495 0 0 1 28.8-9.4l1.1-.2h.8l.8-.1c1.4 0 2.9.3 4.3 1a15.2 15.2 0 0 1 6.8 5.9c.8 1.3 1.3 2.7 1.5 4.1l.3 2.4v2.5l-17.1 7.3a7 7 0 0 0 1.5-2 8 8 0 0 0 .6-3.5c0-3.4-1.2-6.2-3.6-8.4a12.4 12.4 0 0 0-8.7-3.3h-1c-.4 0-.8 0-1.2.2v40c0 3.4 1.2 6.2 3.6 8.4 2.4 2.2 5.3 3.3 8.6 3.3h1.2c.3 0 .7 0 1-.2l15-5v1.5a245.3 245.3 0 0 1-14.2 4.8A435.6 435.6 0 0 1 765 735"/><path d="m801.7 660.3 9.1-9.1 9.2 9-9.2 9.1zm26.7 71.6-3.8 1c-1.4.5-2.8 1-4.1 1.3a74.5 74.5 0 0 1-5.3 1.3 7 7 0 0 1-1.5 0h-.6a10 10 0 0 1-4.6-2.1c-1.3-1.1-2.2-2.4-3-3.8a18 18 0 0 1-1.5-4.8c-.3-1.7-.4-3.4-.4-5v-37a6 6 0 0 0-.6-2.5c-.6-1.1-1.6-2-3-2.9a8.8 8.8 0 0 0-4-1.3 87.8 87.8 0 0 1 15.7-4.2l1.3.1c1.7.4 3 1.1 4 2.2a6 6 0 0 1 1.6 4.3V718c0 1.6.2 3.3.5 4.9.3 1.6.8 3.1 1.5 4.5a8.9 8.9 0 0 0 3 3.2c1.2.9 2.8 1.3 4.8 1.3"/><path d="M844.8 718c0 1.6.2 3.3.5 4.9.3 1.6.8 3.1 1.5 4.5a8.9 8.9 0 0 0 3 3.2c1.2.9 2.8 1.3 4.8 1.3l-3.8 1c-1.4.5-2.8 1-4.1 1.3a74.7 74.7 0 0 1-5.3 1.3 7 7 0 0 1-1.5 0h-.6a10 10 0 0 1-4.6-2.1c-1.3-1.1-2.2-2.4-3-3.8a18 18 0 0 1-1.5-4.8c-.3-1.7-.4-3.4-.4-5v-36l-.1-1.7-.5-1.8c-.6-1.1-1.6-2-3-2.9a8.8 8.8 0 0 0-4-1.3 690.7 690.7 0 0 1 12.8-4l2.5-.3a8 8 0 0 1 5 1.6c1.3 1.1 2.1 2.7 2.3 4.7a113.5 113.5 0 0 1 10.9-5 17.3 17.3 0 0 1 4.1-1.2h.8l.7-.1c1.9 0 3.6.4 5.3 1.3 1.6.8 3 2 4.3 3.2.8 1 1.4 2 2 3a12.1 12.1 0 0 1 1.4 6V718c0 1.6.1 3.3.4 4.9.3 1.6.9 3.1 1.6 4.5a9 9 0 0 0 3 3.2c1.2.9 2.8 1.3 4.7 1.3l-3.8 1-4 1.3a63.9 63.9 0 0 1-6.8 1.4h-.6a10 10 0 0 1-4.7-2.2c-1.2-1.1-2.2-2.4-2.9-3.8a18 18 0 0 1-1.5-4.8c-.3-1.7-.5-3.4-.5-5v-30.3c0-3-.9-5.5-2.8-7.5-1.8-2-4.3-2.9-7.4-2.9-1.6 0-3 .2-4.2.5z"/><path d="M913 689.5c0-3.4-1.2-6.2-3.5-8.3a12.5 12.5 0 0 0-8.7-3.2h-2.2v40c0 3.4 1.2 6.2 3.6 8.4 2.4 2.2 5.3 3.3 8.6 3.3h1.1c.4 0 .7 0 1.1-.2zM900.1 735a10.5 10.5 0 0 1-8-.2c-1.5-.6-2.8-1.5-4-2.5a13.5 13.5 0 0 1-4.4-7.7c-.2-.8-.2-1.6-.2-2.4V681.5l1.2-.5c.3 0 .7-.2 1-.4l5.3-1.7a84.6 84.6 0 0 0 9-3 397.7 397.7 0 0 1 12.5-3.8 58.2 58.2 0 0 1 2.6-.3c1.5 0 3 .3 4.4 1a15.2 15.2 0 0 1 6.8 5.9 12 12 0 0 1 1.7 6.5v67.5a2330.1 2330.1 0 0 0-17.8 5.9 1187.8 1187.8 0 0 1-8.5 2.4 27.9 27.9 0 0 1-5.7.8c-2 0-3.9-.3-5.6-.8a9.8 9.8 0 0 1-4.6-3.2 13 13 0 0 1-2.5-5.7l1.2-.3 1-.4L896 748a7 7 0 0 0 1-.3l1.2-.2c.8 3.2 2 5.5 3.9 6.8 1.8 1.3 4.3 2 7.7 2h1.6l1.6-.1v-25a544.7 544.7 0 0 1-12.9 4"/><path d="M306.4 836.8a9.8 9.8 0 0 0 1.4-4.3c.2-1.5.2-3 0-4.4 0-.4-.2-.9-.5-1.4-.2-.6-.5-1-1-1.5-.3-.5-.8-.9-1.3-1.1-.5-.3-1-.3-1.6-.2-.5.1-.8.5-.8 1.2-.1.6 0 1.3.1 2a28.9 28.9 0 0 0 1.2 4 57 57 0 0 1 1.5 6c.2.5.5.4 1-.3m-7.7-34c0 .7.2 1 .6 1a3 3 0 0 0 1.2-.7l1.3-1.2a50.9 50.9 0 0 1 3.3-3.5l1.9-3a25.2 25.2 0 0 0 2.2-5.4c.2-1 .2-2 .1-3 0-.9-.4-1.7-1-2.4-.9-.9-1.7-1.3-2.5-1.2-1 0-1.7.4-2.6 1-.8.5-1.5 1.2-2.1 2l-1.4 2.5c-.5 1-.9 2-1 3.2a28.4 28.4 0 0 0-.4 7.3l.4 3.5m-1.2 44.6c.8-.6 1.1-1.3 1-2a42.9 42.9 0 0 1-1.4-5.6 107.3 107.3 0 0 0-2-9 252.5 252.5 0 0 0-2-8.5 167.7 167.7 0 0 1-1.4-7.7c-.3-.4-.7-.5-1.3-.3-.5.1-1 .4-1.7.8l-1.6 1.4-1.2 1a68.1 68.1 0 0 0-5.8 6.9c-1.7 2.3-3 4.9-3.8 7.8a21.4 21.4 0 0 0-1 9c.1 1.5.6 3 1.2 4.2a8.3 8.3 0 0 0 3 3.3 12 12 0 0 0 4.4 1.7 20.3 20.3 0 0 0 13.6-3m30.3-36.8a10.5 10.5 0 0 1-2.7 11c-.9.8-1.9 1.4-3 1.7-1 .4-2.2.6-3.5.7h-2.1a7 7 0 0 0-1 .1c-.4 0-.7.2-.9.4-.3.3-.4.8-.2 1.5l.3 1.7c.1 2.6-.4 5.1-1.6 7.5a31.2 31.2 0 0 1-4.3 6.4c-1 1-1.5 2-1.6 2.7 0 .8.2 1.9.6 3.1l.6 2c.1.5.2 1 0 1.4 0 .4-.3.7-.7 1-.4.2-1 .4-2 .5a113.8 113.8 0 0 1-4.4.2c-.5-.1-.8-.3-.9-.6l-.4-1c-.3-.5-.5-.8-.7-.8-.1-.1-.5 0-1.1.2-.6.1-1 .4-1.6.7l-1.5.8a28.7 28.7 0 0 1-14.8 3.2 17 17 0 0 1-6.5-1.5 14.2 14.2 0 0 1-7.8-9c-.6-2.1-.8-4.3-.5-6.7.3-2.5 1-4.8 2.1-7a32 32 0 0 1 9.2-11 142 142 0 0 1 14-9.4l.2-1.3a51 51 0 0 0-.4-3.9c-.3-2.4-.2-4.9.2-7.3a22 22 0 0 1 6-12c1.5-1.5 3.2-2.7 5-3.7l3.3-1 3.5-.3c1.2.1 2.4.3 3.5.7 1 .4 2 1 2.8 2 .8.7 1.2 1.6 1.4 2.6.2 1 .3 1.9.2 2.9-.2 1-.4 2-.8 3s-.9 1.9-1.4 2.7a23.8 23.8 0 0 1-4.4 5 56.7 56.7 0 0 1-9.6 6.9c-.4.4-.7.8-.9 1.4-.2 1-.2 2.1.2 3.5a108.9 108.9 0 0 1 1.1 5.7c.1.7.3 1.4.6 2l.1.8v.3l.4-.2 1.1-.7 2.8-1.8c.9-.5 2-.9 3-1.2 1.2-.3 2.4-.4 3.5-.5h3.5c1.1.1 2.3.2 3.4.1 1.2 0 2.3-.2 3.4-.4 1.3-.3 2.2-.8 2.6-1.4.5-.7.6-1.6.4-3l-.1-1c0-.3 0-.6.3-.9.6-.4 1-.5 1.4 0 .3.4.6.8.7 1.2"/><path d="M374.9 832.2c-2.4 0-4.3-.7-6-1.9a11.5 11.5 0 0 1-3.5-4.8c-.5-1.3-.8-2.6-1-4-.1-1.4-.2-2.8-.1-4.1 0-2.4.3-4.7 1-7a37.8 37.8 0 0 1 11-17.7 44.7 44.7 0 0 1 41.8-11.6 117.8 117.8 0 0 0 16.8 1.8l3.5-.3c1.3-.2 2.3-.5 3.3-1a32.3 32.3 0 0 1 2-.9h1c.4.1.6.4.7.9-.2.5-.6 1-1.1 1.5a15 15 0 0 1-3.8 2.5l-1.6.7c-2.3 1-4.7 1.7-7.1 2-2.5.4-5 .5-7.4.3-2.5 0-5-.3-7.5-.7l-7.3-1c-2.4-.4-4.9-.7-7.3-.8-2.5-.1-5 0-7.3.2-2.3.3-4.6.9-6.9 1.7a20.8 20.8 0 0 0-9.7 7.8c-1 1.2-1.8 2.6-2.6 4-1.4 2.5-2.4 5-3.2 7.8a24.5 24.5 0 0 0-.5 11.6 10 10 0 0 0 1.3 3.2c.7 1 1.5 1.8 2.5 2.3 1 .6 2.1.9 3.5.8a12.6 12.6 0 0 0 6.2-2l2-1.4c.6-.6 1.2-1 1.8-1.3.6-.4 1.3-.6 2-.5.6.1.8.7.5 1.7a4 4 0 0 1-1.4 1.8l-1.9 1.6a53.5 53.5 0 0 1-6.3 4.7c-1.1.6-2.3 1.1-3.5 1.5a13 13 0 0 1-3.9.6m34.1-14.8-1.5 3a79 79 0 0 0-2.3 4.4 67.7 67.7 0 0 1-14 19.1 39.6 39.6 0 0 1-15.4 8c-2.9.7-5.8 1.3-8.8 1.6-3 .3-6 0-9-1-1.3-.5-2.6-1.1-3.9-2.1-1.3-1-2.3-2.1-3-3.4a7.3 7.3 0 0 1-1.1-4c0-1.3.7-2.7 2-4 1-1 2.1-1.6 3.6-1.8 1.4-.2 2.6.2 3.7 1.3 1 1 1.4 2 1.3 3.2 0 .8-.3 1.5-.8 2s-.8 1.1-1.1 1.8c-.4.8-.4 1.4-.2 2 .2.5.6 1 1.1 1.4l1.8.9 2 .5c1.5.3 3.2.3 4.8 0a23.2 23.2 0 0 0 13.3-6.8 47 47 0 0 0 6.2-8c1.8-2.8 3.5-5.9 5-9 1.5-3.2 3-6.2 4.7-9.1H394c-.5 0-.9-.1-1.1-.4-.3-.2-.5-.4-.5-.7V815c0-.3.2-.6.5-.8.2-.3.6-.4 1-.4h5.4l2.7-4.9c1.5-2.4 3.2-4.8 5-7a42.3 42.3 0 0 1 17-12.2c.6 0 1.1 0 1.6.3.3.3.5.5.5.8l-.4.7-.7.7a36 36 0 0 0-4.6 3.8 19 19 0 0 0-2.5 3.7l-2.2 3.9a138 138 0 0 0-5.1 10.2h4.7c.5 0 .9.1 1.2.4.3.2.4.5.4.8v1.3c0 .3-.1.5-.4.7a2 2 0 0 1-1.2.4z"/><path d="M428.3 803.4c0-.7.1-1.4.4-2.2.3-.7.8-1.4 1.3-2 .5-.6 1-1 1.8-1.4a5 5 0 0 1 2-.7c.7 0 1.3 0 1.8.3s.9.6 1.1 1.1c.2.5.4 1 .4 1.7 0 .6-.2 1.2-.4 1.7-.4 1.1-1.2 2.1-2.4 3a5.5 5.5 0 0 1-3.4 1.4c-.6 0-1.2-.3-1.7-.7-.4-.5-.8-1.2-1-2.2m1.3 14c-.9 2.3-1.9 4.4-3 6.3a114.8 114.8 0 0 1-6.1 10 87.8 87.8 0 0 1-5.2 8.6 14.6 14.6 0 0 0-1.7 3.2c-.2.7-.4 1.3-.4 2 0 .6.1 1.2.5 1.7.3.5.7.8 1 .8.7.3 1.6.1 2.6-.4s2-1.3 3.1-2.3a40.4 40.4 0 0 0 6.5-7.1 44.6 44.6 0 0 0 4.1-6.5l.3-.6.9-1.2c.2-.4.4-.3.6.2v.6l-.3 1v-.2l-1.3 2.2a29.9 29.9 0 0 1-9.3 13.4 21.4 21.4 0 0 1-5.3 3.6c-1.9 1-4 1.4-6.3 1.4a6 6 0 0 1-2.3-.5c-.8-.3-1.4-1-1.8-1.8a6 6 0 0 1-.9-3.3c0-1.3.3-2.7.7-4a54.7 54.7 0 0 1 7.9-14.5l2.4-4 2.4-4.2c.4-.7.7-1.3.8-1.9a50.6 50.6 0 0 1 1.3-4 7 7 0 0 1 2.5-.6 49 49 0 0 1 6.2-.2v.4l.2.9-.1 1"/><path d="M437 820.4c.5-.6.8-1.3.8-1.9a26.9 26.9 0 0 1 0-3.1c0-.1.3-.2.7-.2h2a88.5 88.5 0 0 1 6.3-.3l.4.8.2 1c0 .8-.4 1.6-.8 2.5l-1.2 2.5c1.2-1 2.3-2 3.5-2.8a22.7 22.7 0 0 1 5.7-3.4 13.7 13.7 0 0 1 4.7-.7c.8 0 1.6.1 2.3.4 1.5.8 2.4 2 2.5 3.4.2 1.5 0 3-.3 4.4-.6 2-1.6 4-3 5.8a137.6 137.6 0 0 0-11.2 18.2c-.2.6-.2 1 0 1.5.2.4.7.6 1.5.5 1.9-.5 3.5-1.2 5-2.3 1.3-1 2.6-2.3 3.8-3.7 1.1-1.3 2.2-2.8 3.2-4.4a78 78 0 0 1 3.6-5.3c.2-.5.5-.9.8-1.2.3-.4.6-.6 1-.7.3-.1.6 0 1 .5.1.3.2.6 0 1 0 .3-.2.7-.4 1a16.2 16.2 0 0 1-1.3 1.8l-4.4 5.8a53 53 0 0 1-4.8 5.5 30.2 30.2 0 0 1-5.7 4.5c-2.1 1.2-4.4 2-6.9 2.4-1 0-2-.1-2.8-.5a4.3 4.3 0 0 1-2-2.3 6.8 6.8 0 0 1-.4-3.8c.2-1.4.6-2.7 1.2-4a982.7 982.7 0 0 1 12-19l1.1-2c.3-.4.5-1 .7-1.7.1-.7 0-1.2-.6-1.6-.5-.3-1-.3-1.5 0l-1.5.6c-2 .8-3.7 2-5.3 3.7a148.4 148.4 0 0 0-5.8 6.7l-1.4 2a1088.4 1088.4 0 0 1-12.1 18.6 10 10 0 0 1-1.3 2.2c-.3.2-.8.3-1.4.2h-5.1c-.9 0-1.4-.2-1.6-.4-.2-.3-.1-.8.2-1.5l1.7-3a1534.7 1534.7 0 0 0 17-27.7"/><path d="M472.5 833.1c2-.1 3.9-.7 5.5-1.9a53.7 53.7 0 0 0 6.8-5.7 17 17 0 0 0 3-4.7 5 5 0 0 0 .6-2.5c0-.7-.2-1-.6-1.2-.3 0-.8 0-1.3.2l-1.7 1a19.8 19.8 0 0 0-3.8 3.4 45.2 45.2 0 0 0-4.5 5.5 140 140 0 0 0-4 6m-4.2 12.9c.2 1.3.6 2.2 1.4 2.6.7.4 1.6.6 2.6.5 1-.2 2-.4 3-.9l2.7-1.4a28 28 0 0 0 4.9-3.8 80.8 80.8 0 0 0 8.5-9.5l2.7-3.3c.4-.4.7-.5.8-.3.2.3.2.7 0 1.1-.2.9-.8 2-1.6 3.2a45.6 45.6 0 0 1-7 8.1 75 75 0 0 1-11 9.2 15.1 15.1 0 0 1-7.9 2c-1.3 0-2.6-.4-3.8-1a6.7 6.7 0 0 1-2.8-3 9.4 9.4 0 0 1-.9-4c0-1.4.1-2.7.4-4.1a39.9 39.9 0 0 1 17.5-22.9 25 25 0 0 1 9.8-3.8c1-.2 2.2-.3 3.5-.2 1.3.1 2.2.8 2.9 1.8.5.8.7 1.7.6 2.6 0 .9-.2 1.8-.6 2.6-.3.9-.7 1.7-1.3 2.4a22.8 22.8 0 0 1-6.4 5.9 45.6 45.6 0 0 1-11.2 4.8c-.5.2-1.2.2-2 .3-.8 0-1.4.3-1.9.8-.4.4-.8 1.1-1 2l-.9 2.4a14 14 0 0 0-.9 2.9c-.2 1-.2 2 0 3"/><path d="M567.5 793.7a62.2 62.2 0 0 0-9.6 8.2 32.7 32.7 0 0 0-7.6 13.7 14 14 0 0 0-.4 3.2c0 1 .2 2.1.5 3.1.4 1 1 1.9 1.8 2.6 1.4 1 2.9 1.5 4.6 1.2a8.4 8.4 0 0 0 5-2.6l.8-.8c.3-.3.7-.5 1-.5h.9l.5.7c0 .3 0 .6-.2.8l-.5.9-.6.5a18.2 18.2 0 0 1-11 5.9 11 11 0 0 1-9.5-3.6 12.3 12.3 0 0 1-3-9.8c.3-2.2 1-4.3 1.8-6.3a34.2 34.2 0 0 1 7.5-10.8 56 56 0 0 1 15.9-11.4 76.7 76.7 0 0 1 25.2-7.3 118.2 118.2 0 0 1 19.8-.6c.6.2 1.1.5 1.5.8.5.3.7.7.9 1 .1.4 0 .8-.6 1.2a2 2 0 0 1-1 .2c-.6 0-1 0-1.5-.2a394.1 394.1 0 0 1-2.7-.5c-1 .1-2 .4-2.9.8-.9.4-1.8 1-2.6 1.6a29 29 0 0 0-4.6 4.7 52.2 52.2 0 0 0-7 11.5l-2.9 6-6 12.4a252.9 252.9 0 0 1-13.5 24.5 101.2 101.2 0 0 1-18 21 53 53 0 0 1-24 11.8c-2.3.4-4.5.5-6.8.5-2.2 0-4.4-.5-6.5-1.3-1.8-.7-3.4-1.7-4.7-3.1a8.6 8.6 0 0 1-2.3-5.1 8.2 8.2 0 0 1 2-6.7c.6-.5 1.3-1 2.1-1 .9-.3 1.7-.3 2.5 0 .8.1 1.5.5 2.1 1 .6.6 1.1 1.3 1.4 2 .3.8.4 1.6.3 2.4-.1 1-.5 1.7-1 2.5a4 4 0 0 0-.7 2.6c0 1.1.6 2 1.6 2.6 1 .6 2 1 2.9 1.2 2 .7 4 .8 6 .3 2-.4 3.9-1.1 5.6-2.2a31 31 0 0 0 5.1-3.7 80 80 0 0 0 13.5-15.6c2.7-4 5.3-8.2 7.7-12.4a44365.6 44365.6 0 0 1 16-27.3c2.4-4.2 4.9-8.2 7.5-12.2a56.5 56.5 0 0 1 20.4-19c-6-.1-11.8.8-17.2 2.7a68.3 68.3 0 0 0-15.5 7.9"/><path d="M587.1 833.1c2-.1 3.9-.7 5.5-1.9a53.7 53.7 0 0 0 6.8-5.7 17 17 0 0 0 3-4.7 5 5 0 0 0 .6-2.5c0-.7-.3-1-.6-1.2-.4 0-.8 0-1.3.2l-1.7 1a19.8 19.8 0 0 0-3.8 3.4 45.2 45.2 0 0 0-4.6 5.5 140 140 0 0 0-3.9 6M583 846c.2 1.3.6 2.2 1.4 2.6.7.4 1.6.6 2.6.5 1-.2 2-.4 3-.9l2.6-1.4a28 28 0 0 0 5-3.8 80.8 80.8 0 0 0 8.4-9.5l2.8-3.3c.4-.4.7-.5.8-.3.2.3.2.7 0 1.1-.2.9-.8 2-1.7 3.2a45.6 45.6 0 0 1-7 8.1 75 75 0 0 1-11 9.2 15.1 15.1 0 0 1-7.8 2c-1.4 0-2.6-.4-3.8-1a6.7 6.7 0 0 1-2.8-3 9.4 9.4 0 0 1-1-4 24.4 24.4 0 0 1 1.7-8.2 39.9 39.9 0 0 1 16.3-18.8 25 25 0 0 1 9.7-3.8c1.1-.2 2.3-.3 3.6-.2 1.2.1 2.2.8 2.8 1.8.5.8.8 1.7.7 2.6 0 .9-.2 1.8-.6 2.6-.3.9-.8 1.7-1.3 2.4-.6.8-1.1 1.5-1.7 2-1.4 1.5-3 2.8-4.7 4a45.6 45.6 0 0 1-11.2 4.7c-.6.2-1.3.2-2 .3-.9 0-1.5.3-1.9.8-.4.4-.8 1.1-1 2l-.9 2.4a14 14 0 0 0-.9 2.9c-.2 1-.2 2-.1 3"/><path d="m618.9 843.5-5.7 6.2-2.7 2.5a7 7 0 0 1-3.2 1.5c-1.5.3-2.8.3-3.8 0s-1.8-.9-2.4-1.7c-.7-.8-1-1.8-1.2-3-.2-1.1-.1-2.4.2-3.7.6-2.3 1.5-4.5 2.7-6.6l3.7-6.1 3.8-6.1a38 38 0 0 0 3.7-8.3c.2-.8.5-1.4 1-1.8a3 3 0 0 1 1.7-.5l1.7-.2a78 78 0 0 1 3.8-.5c.7 0 1.2.2 1.4.6.2.4.2 1 .2 1.5l-.5 1.7-.6 1.6c-1 2.3-2 4.5-3.3 6.5a255 255 0 0 1-4 6.3c-1.3 2-2.6 4.1-3.8 6.3a38.5 38.5 0 0 0-3 6.6c-.5 1-.5 1.8.2 2.3.6.6 1.4.5 2.5-.1a62 62 0 0 0 12.2-14.7 118.3 118.3 0 0 0 9.2-16.8c.3-.7.7-1.1 1.1-1.3l2-.4c.6 0 1.4-.2 2.2-.4.8-.1 1.6-.2 2.2-.1.8.1 1.2.4 1.3 1a4 4 0 0 1 0 2l-1.2 2.6a80 80 0 0 1-3.9 6.7l-4 6.8c-1.4 2.3-2.7 4.6-3.8 6.9-.5 1-1 2.1-1.3 3.3-.3 1.1-.5 2.2-.5 3.3.1 1.2.7 1.8 1.7 2 1 .1 2 0 2.9-.5 1-.5 2-1.2 3-2l2.5-2.8a43.7 43.7 0 0 0 4.2-6 64.2 64.2 0 0 0 6.4-14.2c.4-1.3.5-2.5.5-3.6 0-.6-.2-1.2-.3-1.6-.2-.5-.2-1-.2-1.5.1-.6.3-1.1.6-1.7.4-.5.8-1 1.3-1.3.5-.4 1-.7 1.6-.8a3 3 0 0 1 1.7.2c.7.3 1.1.7 1.4 1.2.2.5.4 1.1.4 1.7v2l-.4 1.8c-.3 1.5-.7 3-1.2 4.2l-1.9 3.9a78 78 0 0 1-10.8 15.8c-1.8 2-3.8 4-6 5.8-2 1.8-4.6 3-7.4 3.7-1.3.2-2.6.3-3.8 0-1.3-.3-2.3-1-3-2.1a6.2 6.2 0 0 1-1.2-4v-4.1"/><path d="M660.1 833.1c2-.1 3.9-.7 5.5-1.9a53.7 53.7 0 0 0 6.8-5.7 17 17 0 0 0 3-4.7 5 5 0 0 0 .6-2.5c0-.7-.2-1-.6-1.2-.3 0-.8 0-1.3.2l-1.7 1a19.8 19.8 0 0 0-3.8 3.4 45.2 45.2 0 0 0-4.5 5.5 140 140 0 0 0-4 6M656 846c.2 1.3.6 2.2 1.4 2.6.7.4 1.6.6 2.6.5 1-.2 2-.4 3-.9l2.7-1.4a28 28 0 0 0 4.9-3.8 80.8 80.8 0 0 0 8.5-9.5l2.7-3.3c.4-.4.7-.5.8-.3.2.3.2.7 0 1.1-.2.9-.8 2-1.6 3.2a45.6 45.6 0 0 1-7 8.1 75 75 0 0 1-11 9.2 15.1 15.1 0 0 1-7.9 2c-1.3 0-2.6-.4-3.8-1a6.7 6.7 0 0 1-2.8-3 9.4 9.4 0 0 1-.9-4c0-1.4.1-2.7.4-4.1a39.9 39.9 0 0 1 17.5-22.9 25 25 0 0 1 9.8-3.8c1-.2 2.2-.3 3.5-.2 1.3.1 2.2.8 2.9 1.8.5.8.7 1.7.6 2.6 0 .9-.2 1.8-.6 2.6-.3.9-.7 1.7-1.3 2.4a22.8 22.8 0 0 1-6.4 5.9 45.6 45.6 0 0 1-11.2 4.8c-.5.2-1.2.2-2 .3-.8 0-1.4.3-1.8.8-.5.4-.9 1.1-1.1 2l-.8 2.4a14 14 0 0 0-1 2.9c-.2 1-.2 2 0 3"/><path d="M713.7 791c-2.3 4.3-4.7 8.6-7.2 12.8l-7.5 12.6-7.4 12.9a272.2 272.2 0 0 0-8.1 15c-.4.9-.6 1.7-.5 2.4 0 .6.3 1 .8 1.2.5.3 1.2.2 2.2-.2 1.5-1 3-2 4.2-3.3a43.6 43.6 0 0 0 6.8-8.4 513.7 513.7 0 0 0 3.7-6c.4-.6.8-1 1.2-1 .3 0 .5.2.5.4v.9l-.3 1-.3.5c-1.5 2-3 4-4.4 6.4-1.5 2.2-3 4.4-4.8 6.5-1.7 2-3.6 3.9-5.7 5.4a17 17 0 0 1-7 3.1c-2 .1-3.5-.4-4.2-1.5a7.2 7.2 0 0 1-1.1-4c0-1.7.2-3.4.7-5 .6-1.8 1-3.1 1.6-4.2 1.7-3.5 3.6-7 5.7-10.3a1914.5 1914.5 0 0 0 21-35.5l.3-1.2v-1.1l.1-1.2 1.6-.2a127 127 0 0 1 7.6-.9c.4.2.6.7.6 1.4l-.1 1.6"/><path d="M726.5 830.9c.2.4 0 1-.6 2a281.5 281.5 0 0 1-11.5 14.7 41.5 41.5 0 0 1-5.5 4.4c-1 .6-2.2 1-3.3 1.2-1.1.2-2.2 0-3.2-.4a5 5 0 0 1-2.7-2.8 8.5 8.5 0 0 1-.4-3.9c.2-1.3.6-2.7 1.2-4a22.2 22.2 0 0 1 4.3-7.5 77.9 77.9 0 0 1 6.5-7.2c1.1-1.2 2.2-2.5 3.1-3.8h-2.2c-.7.2-1.5.1-2.2-.2l-1.5-.5c-.4-.2-.9 0-1.5.4a207 207 0 0 0-5 8.2c-1.6 2.8-3.3 5.5-5.2 8.2a67.2 67.2 0 0 1-6 7.5 32.8 32.8 0 0 1-7.5 6c-.8 0-1.2-.1-1.4-.6-.2-.5 0-1 .3-1.5a44 44 0 0 0 8.6-7.3c2.6-2.8 5-5.8 7-9 2.2-3.2 4.2-6.5 6-10l5.4-10h.9c.3 0 .6.2 1 .4l.8.6.8.6a7.3 7.3 0 0 0 4.5.6c1-.2 2-.5 2.9-.9 1-.3 1.9-.6 2.8-.7.7 0 1.1 0 1.3.3.2.3.3.6.2 1 0 .3-.2.7-.5 1.2l-.7 1.1a111.1 111.1 0 0 0-10.7 16 69.1 69.1 0 0 0-2.7 4.5l-1 2.3c-.2.8-.3 1.7-.2 2.5 0 .6 0 1.3.3 2 .3.8.7 1 1.4 1 1-.2 2-.8 3.2-1.9a39.9 39.9 0 0 0 7.4-8.7 324.5 324.5 0 0 1 4.2-6c.4-.4.9-.4 1.4.2"/><path d="M732.6 847.5a62.6 62.6 0 0 1-6 4.7c-1 .6-2.2 1.1-3.4 1.5-1.2.3-2.5.3-3.7 0a4.5 4.5 0 0 1-2.7-1.6c-.6-.7-1-1.6-1.1-2.6-.2-1-.2-2 0-3.2.1-1 .4-2 .7-3l3-6a230.3 230.3 0 0 1 7-11.2 66.6 66.6 0 0 0 3.7-7l.4-1.3.6-1.3a2 2 0 0 1 1-.8l3.4-.3c1.1-.2 2.3-.2 3.4 0 .6 0 .9.3 1 .7 0 .5 0 1-.2 1.5a9 9 0 0 1-.6 1.5l-.7 1.3a81.9 81.9 0 0 1-4.4 8.2 1722.9 1722.9 0 0 1-5.8 9.5 49.7 49.7 0 0 0-3.9 8.9c-.2.9-.2 1.5 0 2 .2.4.6.5 1.4.2 3-1.1 5.5-2.8 7.6-5 2.2-2.3 4.1-4.8 6-7.6 1.7-2.7 3.4-5.6 4.8-8.6 1.5-3 3.1-5.9 4.7-8.4.2-.5.4-1 .5-1.8l.1-1.7c.3-.4.6-.6 1-.7l4.1-.3a21 21 0 0 1 4.2 0c.2.6.2 1.2 0 2a7 7 0 0 1-.5 2.1c-.6 1.5-1.4 3-2.4 4.3l-2.5 4a297.6 297.6 0 0 1-9.3 16c-1.5 2.3-3 4.7-4.3 7.2l-4.2 7.5a62 62 0 0 1-5 7 40.8 40.8 0 0 1-13.2 10c-2.4 1.1-5 1.9-7.6 2.2l-3.8.4c-1.5.1-3 0-4.4-.2-1.4-.2-2.6-.7-3.8-1.4a6 6 0 0 1-2.5-3.1c-.3-1.2-.2-2.3.1-3.5.4-1.1 1.1-2 2.1-2.7 1-.5 2.1-.6 3.3-.3 1.2.4 1.9 1.2 2.2 2.5 0 .6 0 1.1-.2 1.7l-.8 1.6-.3 1.5c0 .5.4 1 1.1 1.4a4 4 0 0 0 1.8.8h2.1c.8 0 1.5-.1 2.2-.3l1.8-.7c2.7-1.4 5.1-3.1 7.3-5.2 2.1-2 4-4.4 5.8-6.8a76 76 0 0 0 4.8-7.7c1.5-2.7 2.8-5.3 4-7.9"/></g><g fill="#fdc31e"><path d="M513 77.8c-4.2 0-8-3.2-8-6.9a8 8 0 0 1 8-6.9c4.3 0 7.5 3.2 7.5 7 0 3.6-3.2 6.8-7.4 6.8"/><path d="M768 329a7 7 0 0 1 7 7 7 7 0 0 1-7 7c-4.2 0-8.4-3.8-8-7 0-3.7 3.8-7 8-7"/><path d="M511.5 594.7c4.8 0 7.4 2.7 7.4 7-.5 3.6-3.7 6.3-8 6.3-4.2 0-8-3.2-7.4-7 0-3.6 3.2-6.3 8-6.3"/><path d="M256.5 329c4.2 0 7.4 3.3 7.4 7s-3.2 7-7.4 7c-4.3 0-7.5-3.3-7.5-7s3.2-7 7.5-7"/><path d="M613.5 228.2c-3.2 0-5.9-2.2-5.9-4.8 0-2.7 2.7-4.8 5.9-4.8s5.3 1.6 5.3 4.8c0 2.6-2.1 4.8-5.3 4.8"/><path d="M410.5 453.4c-2.6 0-5.3-2.1-5.3-4.2 0-3.2 2.1-5.4 5.3-5.4 3.2 0 5.9 2.2 5.9 4.8 0 2.7-2.7 4.8-5.9 4.8"/><path d="M613 453.4c-3.8 0-6-1.6-6-4.2 0-3.2 2.2-5.4 5.4-5.4s5.3 2.2 5.3 4.8c0 3.2-1.6 4.8-4.8 4.8"/><path d="M411 228.2a4.8 4.8 0 0 1-4.7-4.8c0-3.2 2.1-4.8 5.3-4.8 3.2 0 5.3 1.6 5.3 4.8 0 2.6-2.1 4.8-5.8 4.8"/><path d="M512.5 153.3s-1 5.8-8 9.5c0 0 6.4 5.3 8 10.1 0 0 3.2-6.9 8-10 0 0-6.4-3.3-8-9.7"/><path d="M511.5 499s-3.2 7-8 10.2c0 0 4.3 1.6 8 9.6 0 0 3.7-8 8-9.6 0 0-4.3-2.1-8-10.1"/><path d="M522 335.5c-4.7 4.8-10 6.9-17.4 6.9l-5.9-1-1-.6.5-1c4.8-6.5 16.5-9.6 23.9-7l1.6.5-1.6 2.2m24.4 19.6c-1-1-1.6-2.1-1.6-3.7-1.6-6.9-3.7-12.7-9-17.5l-3.2-2.7 1-4.8a23.5 23.5 0 0 0 0-17c-.5-1-.5-2 .6-3.7 1.6-2.1 1-6.4-.5-8.5-2.1-2.6-5.3-3.7-8-2.6a7.3 7.3 0 0 0-5.3 6.9c-.5 3.2 1.6 6.3 4.8 7.4 1.6.5 2.1 1 2.6 2.7 1.6 4.7 1.6 9 0 13.8-.5 2.1-1 2.6-3.1 2.1-11.2-3.2-21.3-1.6-29.8 7-3.7 3.6-3.7 3.6-8 0l-.5-1.2a23.4 23.4 0 0 1 2.7-32.4c2.6-2 5.3-5.3 10-3.1 3.8 2 8-.6 9.6-4.8 1-3.8-1-8-5.3-9.6-3.2-1-7.4.5-8.5 4.3-1 3.1-3.2 4.2-5.3 5.3a27 27 0 0 0-13.3 18 29.2 29.2 0 0 0 12.2 32.4l-.5 2.2-1.6 6.3a29.2 29.2 0 0 0 21.8 32c2.6.4 4.8 1.5 6.9 3.1 2.1 2.1 4.8 1.6 7.4.5 2.7-1 4.8-4.2 4.3-7.4 0-2.7-2.7-5.9-5.9-6.4-2.6-1-5.8 0-8 3.2-1 1-1.5 1.6-3.1 1a23.5 23.5 0 0 1-17.6-23.3v-2.1c.6-5.3 1.1-5.9 6.4-4.8a28 28 0 0 0 20.7-2.7c3.2-2 6.4-4.2 8.5-6.9.6-1 1.1-2.1 2.7-1 3.2 3.1 5.8 6.9 7.4 11.1.6 2.1 1 4.3-1.6 6.4-3.7 2.6-3.7 7.4-.5 10.6 2.7 3.2 7 3.2 10.1 1 3.2-2.6 3.7-8.4.5-11"/><path d="M692 331.8c0-2.2.6-2.7 2.2-3.8a23.6 23.6 0 0 1 20.7 2.2l8 4.2c3.7 1.6 3.7 1.6.5 2.7-5.8 2.6-11.1 6.3-17.5 8l-3.7.5-8-1.6c-1.6-1-2.1-1.6-2.1-3.8 1-2.6 1-5.8 0-8.4m46.7 7.4c-6.9 2.6-12.7 7.4-19.6 10-4.3 1.1-8.5 3.3-12.8 3.8a21 21 0 0 1-15.9-3.2c-1.6-1-1.6-2.1-.5-3.2.5-1.6 1-2.1 2.6-1.6 8.5 4.3 16.5 2.7 24-2l11-5.4c.6-.5 1.7-.5 1.7-1.6 0-1-1-1-1.6-1.6l-13.8-6.9c-7-3.2-13.8-3.7-20.7-.5-1.6.5-2.7 0-3.2-1-1-1.7-.6-2.8.5-3.8l1.6-1c3.7-1.1 6.9-2.7 10.6-2.2 4.8 0 9 1 12.8 2.7 8.5 2.6 15.4 8 23.3 11.6 7 2.7 8.5 2.2 0 5.9m-21.2 20.2c-1.6 3.7-3.7 5.8-7.4 6.9-2.2 0-3.2 1.6-3.8 3.2-1.6 3.2-7.4 6.9-10.6 6.9-1.6 0-2.1-1-2.1-2.1.5-5.9-1.6-11.7-4.3-16.5-.5-1-2-3.2-1.6-3.7.6-.6 2.2 1 2.7 1.6a35.2 35.2 0 0 0 24.4.5c1.1-.5 2.7-1 3.2 0 1 1 0 2.1-.5 3.2m-28.2-44.6a33.4 33.4 0 0 0 4.8-17.6c-.5-2.6-.5-2.6 2.7-1.6 3.2 1.6 7.4 2.7 9.5 7 .6 1.5 1.6 2.6 3.8 3.1a13 13 0 0 1 8 7c.5 1 1.5 3.1 1 3.6h-3.7a30.3 30.3 0 0 0-18-1.6l-6.5 1.6c-.5.6-2.6 2.2-3.2 1.6-.5-.5 1.1-2.6 1.6-3.1m-6.3 31.8c-.6.6-1.6 1-2.7 0-3.2-3.7-8-6.4-12.2-9.5-1.6-1.1-1-1.6 0-2.2l12.2-9c1.6-1 2.1-1 3.2.5 2.6 2.7 3.2 5.9 4.2 9.6-1 3.7-1.5 7.4-4.7 10.6M580.5 344a73.8 73.8 0 0 0-14.3 17c-3.7 5.3-7 11.1-8.5 17.5l-.5 5.8c-.6 1.6-1.1 2.2-2.7 2.7a31 31 0 0 0-18.6 8 79.4 79.4 0 0 0-20.2 23.9l-3.2 5.8c-.5 1.6-1.6 1.6-2 0a35.4 35.4 0 0 0-6.5-10.6 84 84 0 0 0-15.4-18c-4.2-3.8-9-7-14.3-8L469 387c-2.2 0-2.7-1-3.2-2.7 0-10.6-5.9-19-11.7-27.6-3.7-5.3-8-10-13.3-13.8-2.1-2.1-2.6-6.4-.5-8.5 5.8-5.8 11.7-11.7 16.4-18.6 4.3-6.9 9-14.3 9-23.4 0-1.6.6-3.1 2.7-3.1 7 0 12.8-3.2 17.6-7.5 6.3-4.8 12.2-10 16.4-17 2.7-3.7 5.9-8 7.5-12.2.5-1 .5-2.1 1.6-2.1 1 0 1 1 1.6 1.6a83 83 0 0 0 14.3 21.2c6.4 7 13.3 12.8 22.3 15.4l4.8.6c1.6 0 2.1 1 2.7 2.6.5 9.6 4.7 17.5 10 25 4.3 6.4 9.6 11.7 15 17a6.5 6.5 0 0 1 2 4.8c.6 3.1-2 4.2-3.7 5.3m-60 164.1 2.1 1.6-1.6 1c-4.8 2.2-8.5 9.6-8.5 9.6l-1 2.2c-1-1.6-4.8-9-8.5-11.2l-2.7-1.6 2.7-2.6a24 24 0 0 0 6.9-9l1.6-2.7 1.6 2.6c1.6 3.8 4.2 7.5 7.4 10.1m10.6 4.3c7.5 2.6 13.8 6.4 17.6 13.8 2.6 5.8 8 9 13.2 12.2 1.1.5 2.2.5 2.2 1.6-.6 1.6-1.6 1-2.7 1h-2.1a41.9 41.9 0 0 1-20.7-6.8c-1.6-1.6-2.7-1.1-4.3 0-3.7 3.1-8.5 3.7-13.3 1-3.7-1.6-6.9-7.4-6.3-12.2.5-4.8 3.1-8.5 8-10 2.6-1.2 5.8-1.2 8.4-.6m1.6 48.9a31.4 31.4 0 0 0-18 15.9c-3.2 5.3-3.2 5.3-7 0-2.6-4.3-5.8-8-9-11.2-2.6-2.6-5.8-3.2-9-4.8a17.5 17.5 0 0 1-10.1-18.5c1-3.2 3.2-4.8 5.3-6.4 1.6-1 2.1 1 3.2 1.6 1 0 2.1 1 1.6 2.1-.5 2.7-.5 4.8.5 7 1.6 3.6 4.3 6.3 8.5 6.3 1 0 2.1.5 2.7 1.6.5 1.6 1.6 3.2 3.2 3.7l5.8 6.4 1 2 1.1-2c.6-2.2 3.2-4.3 4.8-5.9l2.7-2.1c1.6-1 1.6-2.7 2-3.2 1.2-1 2.2-1 4.9-2.1 1.6-.5 8-5.3 5.8-10.6-1-2.2 1-3.2 2.1-4.3 1.6-1 2.7-.5 3.8.5 3.7 1.6 4.7 4.8 4.7 8.5 0 6.4-4.7 13.3-10.6 15.5M508.3 532c2.1-3.2 4.2-2.6 5.8 0 3.2 4.8 8 7 13.3 7.5 3.2 0 3.7 1 3.7 3.7 0 4.8-6.4 9.5-11.1 8.5v1c0 2.7-1 3.2-2.2 4.3-2 1.6-4.2 3.2-5.3 5.3l-1 1-1-1-6-5.3c-2-1.6-2.6-5.8-2.6-5.8s-4.2 1-5.8 0c-3.8-1.6-5.4-5.9-4.8-9.6.5-1.6 1-2.1 2.6-2.1 6.4 0 11.2-2.7 14.4-7.5m-48.4 9c-.5 0-1.6 0-1.6-1s.6-1 1.6-1c7-3.8 12.3-8.6 16.5-16 3.7-7.4 11.2-9.6 19.1-11.2 5.3 0 9 2.7 11.2 7 2.1 4.2 1.6 9-1.6 13.2-4.8 5.3-11.7 7-17.5 2.2-1.1-1.1-2.2-1.1-4.3 0A35.6 35.6 0 0 1 460 541m43-377.2-1.5-1.6 2.1-1c3.7-2.2 6.4-4.9 8-9.6l1-2.7 1.6 2.7c1 3.7 4.3 6.9 7.5 9.5l2 1.6-2 1.6a33 33 0 0 0-7.5 9.6l-1.6 2.6-1-2.6c-2.2-3.8-5.3-7-8.5-10.1m-8.5-4.3a28 28 0 0 1-12.8-5.8 23.8 23.8 0 0 1-5.8-7 25.2 25.2 0 0 0-11.2-11l-3.7-2.2-4.3-1.6a22.8 22.8 0 0 1 7.5-1.6c8 1 14.3 2.7 20.2 7.4 2.1 1.6 3.7 1.1 5.3 0 5.8-3.7 10.6-3.1 15.4.6 4.2 3.7 5.3 10 3.2 14.8-2.7 5.4-8 7.5-13.8 6.4m-1-49.4c5.8-2.1 9.5-6.4 13.2-11.1 2.1-2.2 3.2-4.8 4.8-7 1-2 2-1.5 3.2 0 2.6 4.8 5.8 9 10 13.3 1.6 2.2 4.3 3.2 6.4 4.3 7.5 2.6 12.2 7.4 13.3 14.9 1 4.2-1 8.5-4.2 10.6-1.6 1-3.2.5-4.3-.5-1.6-.6-1.6-1.6-1-3.2 1-5.9-2.7-11.7-9-12.8-1.7 0-2.7-.5-3.3-2.1-.5-1.6-2.1-2.7-3.2-3.7-2-1-4.2-3.2-5.3-5.3l-1-2.7-1.1 2.7c-2.1 4.2-8 5.8-10 10.6l-2.2.5c-5.9 1-9.6 5.9-8.5 12.2 0 1.6.5 2.7-1.6 3.8-1.6 1.6-3.2 1-4.8 0-3.2-2.2-3.7-3.8-3.7-8.5-.5-7 4.8-13.9 12.2-16m15.4 3.2 4.3-4.2 3.7 4.2c3.2 1.6 5.3 4.3 4.8 8.5 4.2-3.2 10 0 11.1 4.8v3.2c0 2.1-1 3.2-3.2 3.2a14.5 14.5 0 0 0-13.8 6.9c-2.1 3.2-4.2 3.2-6.4 0-3.1-4.8-7.4-7.5-13.2-7-2.2 0-2.7-1-3.2-2.6-1-5.3 3.7-12.2 11.1-9-.5-4.3 2.2-6.4 4.8-8m52.6 17.5h2.7l1.6 1.1c0 1-.6 1-1.1 1.6-4.3 2.1-8.5 4.2-11.7 8l-4.2 6.3c-3.8 7.5-13.3 11.7-20.8 12.3-5.8 0-9.5-3.2-11.1-8.5-1.6-4.8.5-10.7 4.2-13.3 4.8-3.7 10.1-4.3 15-.6 1.5 1.1 3 1.1 5.2 0a34.3 34.3 0 0 1 20.2-6.9m30.8 298c2.1 4.9 3.2 9.6 2.7 13.4 0 11.6-3.2 21.2-7 30.8l-2 4.7c-.6 1.6-1.6 1.6-2.2 0a41.8 41.8 0 0 1-2.6-32.9 94.2 94.2 0 0 1 8-16.5c1.5-1.6 2-1.6 3.1.6m6.4-7a42.8 42.8 0 0 1 35 3.3c5.4 2.6 10.7 5.3 16 9 .5 0 1.6.5 1.6 1.6-.5 1-1.6 1-2.7 1l-15.4 1.1c-8 .5-15.4-2.1-22.3-4.8-4.8-2.1-9.5-3.7-13.3-7.4-1.6-2.1-1.6-2.7 1-3.7M435 429.5c5.3 8.5 9 18 9 28.2 0 5.8-1 11.1-3.2 16.4l-1.6 3.7c-.5 1.6-1.6 1.6-2.1 0-3.2-7.4-5.9-14.8-7.4-22.8-.6-3.2-1.6-6.4-1.1-9.6-1-5.3 0-10.6 2.1-15.4 0-1 .6-2.6 2.1-2.6 1.1 0 1.6 1.6 2.2 2.1m-9-4.3c-5.4 5.9-13.3 8-20.8 10.7-6.4 2.1-12.7 1.6-20.2 1.6l-10.6-.6c-.5 0-1.6 0-2.1-1a126 126 0 0 1 23.4-13.3 36 36 0 0 1 22.3-2.1l7.4 1.6c2.1 1 2.1 1.6.5 3.1m-70.6-87.6c-4.3 2.6-8.5 5.3-11.7 9-1 1-2.1.6-3.2-.5-2.1-2.7-3.2-6.4-4.2-10.1 1-3.7 2-7 4.2-9.6 1-1.6 2.1-1.6 3.2-.5 3.7 3.2 7.4 6.4 11.7 8.5 1.6 1 2.1 2.1 0 3.2m-19.7-20.7-2.6-.6c-3.8-1.6-8-2.6-12.3-2.6-4.2 0-8 1.6-12.2 2.6-1 0-2 .6-2.6-.5-1-.5-.6-1.6 0-2.6 1.6-3.8 4.2-5.9 8-7.5 2-.5 3.1-1.6 4.2-3.7 1-2.1 7.4-6.4 10.6-6.4 1 0 1.6 1 1.6 2.1a35 35 0 0 0 5.3 19.2m-1 40.4-3.8 8.4-1 8c-.6 2.7.5 3.2-2.7 2.1-3.2-1-7.4-2-9.5-6.3a6.8 6.8 0 0 0-4.8-3.8 10 10 0 0 1-7-6.9c-.5-1-1-2 0-2.6 1.1-1 1.7-.5 2.7 0 7 1.6 13.8 2.6 20.8 1l3.7-1.5 2-.6-.4 2.1m-2.7-16.4c0 1.6-.5 2.6-2.1 3.2a22 22 0 0 1-15.4 0c-4.8-1.6-9-4.3-13.8-6.4l-2.7-1.6 2.7-1c5.3-2.7 10-6 15.9-7.5 1.6-1 3.2-1 5.3-1 2.7 0 5.9 1 8.5 2 1.6.6 1.6 1.1 1.6 2.7-1 3.2-1 6.4 0 9.6m-36.1 4.2-12.8-7.4c-3.2-1.6-3.2-1.6 0-3.2 5.9-3.2 11.7-7.4 18-9.6 7-3.1 14-6.3 21.9-5.8 3.7 0 6.9 1 10 2.7 1.1 1 2.7 1.6 1.7 3.7-1.1 2.1-2.2 2.1-3.8 1.6-8-3.8-14.8-2.7-21.7 1.6l-12.8 5.8c-2.1 1-1.6 2.1 0 3.2 7 2.6 12.8 6.9 20.2 9 4.8 1.6 9.6.6 14.3-1 1.1-.6 2.7-1.6 3.2.5.6 1.6 1 2.6-1 4.2a23.4 23.4 0 0 1-21.3 1.1c-5.3-2.1-11.1-3.2-16-6.4m136-101.4c-1.5-4.3-2.6-9-2.6-13.3 0-8.5 1.6-17 4.8-25l3.7-10.6c.6-.5.6-1.6 1.6-1.6s1 1 1 1.6a43 43 0 0 1 4.9 19.6 51 51 0 0 1-10.1 29.3c-1 1.6-2.7 1.6-3.2 0m-5.3 5.8c-4.8 2.7-10.1 3.2-16 3.2-8 .5-15.4-3.2-22.3-7-4.8-2-9.5-5.2-13.8-7.9l-1.6-1c.5-1.1 1-1.1 1.6-1.1 8.5-1 17-2.7 25.5-.5 8 1.6 16 4.2 22.9 8.5l4.2 3.7c1.6 1 1 1.6-.5 2.1M580 217c-.5-5.8 1-11.7 2.7-17.5l2-5.3 1.1-1.1 1.1 1a97.8 97.8 0 0 1 9 34.6c0 4.8-.5 9.6-3.1 14.3-.6 2.2-1.6 2.2-3.2.6-5.4-8-8.5-17-9.6-26.6m18 28.7a24 24 0 0 1 10.2-5.9c8.5-3.1 17-6.3 26-5.3 5.3-.5 10 .6 15.4 1 .5 0 1.6-.4 2.1.6 0 1-1 1-1.6 1.6-8 4.3-16 9-25 11.7-9 2.7-18 2.1-27-1.6-1.6-.5-1.1-1 0-2.1m150.3 86.6c-8-3.7-14.9-9-23.4-12.8l-1-2c.5-7.5-3.2-11.8-9.6-15.5l-2.6-2.1c-3.8-5.3-9-8.5-15-9-3.6-.6-4.7-2.2-6.3-4.8a20.2 20.2 0 0 0-11.7-9c-9.5-1.7-17.5 1-24.4 7.4a14.4 14.4 0 0 0-5.3 9c-.6 8 5.3 12.2 11.1 14.3 2.1.6 4.3.6 5.9-1 1-.6 1.6-1.6 1-3.2-.5-1.6-1.6-1.6-3.2-1l-3.7-.6c-5.8-2.7-6.9-9-2.1-13.8 3.7-3.7 8.5-5.9 13.8-6.4a14 14 0 0 1 13.8 8c3.7 8 2.1 15.4-2.1 22.8-2.7 5.9-7.4 10.1-11.7 13.8-5.3 4.3-10.6 7-17.5 6.4h-58.5c-2.6 0-4.7-1-6.9-2.6a67 67 0 0 1-22.3-27.7 26 26 0 0 1-3.2-14.3c0-1 0-2.1 1-3.2l27.2-31.3c1.6-2.2 3.2-2.2 5.3-1.6a37.1 37.1 0 0 0 16.5 3.7c9.5 0 18-3.7 26.5-8 6.4-3.2 12.3-8 19.2-10 1.5-.6 2.6-1.1 2.6-2.7-.5-1.6-1.6-1.6-3.2-1.6l-12.7-1.6c-16-2.2-31.4.5-45.7 8.5-.5.5-1 1-1.6.5v-2.1c1.6-7 1-13.3 0-20.2-1.6-11.2-7-21.8-10.6-32.4-.6-1-1-2.1-2.7-2.1-1 0-1.6 1-1.6 2l-4.2 11.8-2.7 8.5a51.4 51.4 0 0 0 11.2 39.8c1.6 2.1 1.6 3.2 0 4.8l-26.6 31.3c-1 1.1-1.6 1.1-2.6 1.1-7 0-12.8-2.6-17.6-6.9-9.5-7.4-17-16.5-23.4-26.6-2-3.2-3.1-5.8-.5-9.5 2.1-3.7 4.8-7 8.5-9.6 4.8-3.2 10.1-4.8 15.4-8 4.3-2.6 8.5-5.8 11.2-10.6 2.6-5.8 1-12.7-5.3-15.4-4.3-2.1-8.5-1.6-13.3.5-3.7 1.6-5.3 4.8-5.9 8.5-.5 2.2 1.6 4.3 3.2 4.3 2.1 0 3.2-1 3.7-3.2 1.1-4.8 5.4-6.4 9.6-4.8a4 4 0 0 1 2.1 4.8c0 2.1-1 3.7-2 5.3l-8 6.4c-6 3.7-12.8 5.8-18.1 10.6-.6 0-1 1-1.6.6-1-.6-.5-1.1-.5-2.2v-47.3a18 18 0 0 1 14.3-17 36 36 0 0 0 23.4-14.8c3.2-4.8 6.9-9 12.2-11.7l8-2.1c1 0 2-.6 2-1.6 0-1.6-1-1.6-2-2.2a37.2 37.2 0 0 0-22.9-.5c-2.1.5-2.6 0-2.1-2.7.5-2.6 0-5.3-.5-8-2.2-5.8-5.9-10-11.2-12.7-3.2-2-7-3.7-10-6.3-4.3-3.8-8.6-8-10.7-13.9-.5-1.5-1-2.6-3.2-2.6-2.1-.5-3.7.5-4.8 2.6a31 31 0 0 1-14.3 16.5l-9.6 5.9c-5.8 4.7-9.6 10.6-8.5 18 .5 3.2 0 3.7-3.2 2.7a40 40 0 0 0-22.3 1c-.5.6-1.6 1.1-1.6 2.2l1.6 1.6h2.1a27.6 27.6 0 0 1 17.6 12.2 33.9 33.9 0 0 0 25.5 16.4c6.3 1.1 13.2 9.6 13.2 16a13854 13854 0 0 1-.5 48.3l-.5 2.2c-1 .5-1.6-.6-2.1-1.1l-4.3-2.7-17-10c-3.2-2.2-5.8-4.8-6.4-8.6-1-2.6 0-4.2 2.7-5.3 4.2-1.6 8 0 9 4.8.6 2.1 1.6 3.7 3.7 3.2 2.7-.5 3.2-2.1 2.7-4.3 0-2-.5-3.7-1.6-5.8-3.2-3.7-10.6-5.3-14.9-4.3-7.4 2.2-10.6 9-6.9 16.5 3.2 6.4 9 10.1 15.4 13.3 4.8 2.7 10.6 3.7 14.4 8 5.3 6.9 8 9.5 1.6 17-5.4 9.5-12.8 17-20.8 24.4a33.8 33.8 0 0 1-11.6 7.4c-3.8 1.1-7.5 2.2-10.7-2L451 268 436 250.5c-1-1-.5-2.2 0-3.2l4.3-5.9a47.3 47.3 0 0 0 6.9-39.3c-1.6-5.8-4.3-10.6-5.3-16-.6-1-1-2-2.1-2s-2.2 1-2.2 2c-3.2 7-6.4 13.9-8.5 21.9a55.4 55.4 0 0 0-2.6 30.8v2.1c-.6.5-1.6 0-2.2-.5-4.7-2.7-9.5-4.3-14.8-6.4-3.8-1-8-2.7-12.3-2.7-10.6-.5-21.2 1.1-31.8 2.2-1 0-2.1.5-2.1 1.6-.6 1.6.5 1.6 1.5 2 2.2 1.7 4.8 1.7 7 3.3 7.4 4.2 14.8 9 23.3 12.2 7 2.7 13.8 3.7 20.7 2.7a46 46 0 0 0 12.3-3.2c2-.6 3.1-.6 4.7 1l24 28.2c1.5 1 3.1 2.6 3.1 4.8 0 4.7-.5 9.5-2 13.8a75.1 75.1 0 0 1-21.3 28.7c-2.7 1.6-4.8 4.2-8.5 4.2h-63.3a9 9 0 0 1-5.3-1.6 56.3 56.3 0 0 1-17-14.9 32.7 32.7 0 0 1-6.3-18.6c.5-6.3 4.7-12.7 10-15.4 6.4-2.6 17.6 2.2 21.3 7.5 2.1 2.6 2.7 5.3.5 8.5-2 2.6-4.2 4.8-8 3.7-1.5 0-2.6.5-3.1 1.6-.6 1.6.5 2.1 1 3.2 1.1 1 2.7 1 3.8 1 3.1.6 5.3-1 7.4-2.6 6.9-4.3 8-13.8 2.1-19.7l-4.2-3.7c-10.7-7.4-26-8.5-34 5.9-1 2-2.2 2.6-4.8 3.1-5.9.6-10.6 2.7-14.4 7.5l-4.2 4.2c-5.9 3.2-10.1 7.5-9.6 15 0 1 0 1.5-1 2l-23.4 12.8c-1.6 1-3.2 2.1-2.7 4.2 0 1.6 1.1 2.7 2.7 3.2l1.6.6c6.9 4.2 13.8 9 21.2 12.2 1.6.5 1.6 1 1.6 2.6-.5 5.9 2.7 10.1 7 13.3 1.5 1.6 4.2 1.6 5.8 4.3a18 18 0 0 0 14.3 8.5c3.2.5 5.3 2 7 5.3a19 19 0 0 0 20.1 9c6.4-1 12.2-4.3 16.5-9 4.8-4.8 5.3-9.6 2.1-15.4-2.1-4.8-9.6-8-13.8-6.4-1.6.5-2.7 1.6-2.1 3.7 0 1.6 1.6 2.1 3.2 1.6 3.1-.5 5.8.5 7.4 3.2 1.6 2.1 2.1 4.8.5 8-2.6 4.7-7.4 6.3-12.2 8.5-10.6 3.7-18.6-4.8-19.6-13.9-.6-5.8 1-11.1 3.7-15.9 4.8-9 12.2-14.9 21.2-19.6l3.2-1.1H427c1.6 0 2.7.5 3.2 2.6 0 1.1 1 2.2 2.1 2.7l10.6 9a71.4 71.4 0 0 1 11.7 16.5c2.1 4.3 4.3 9 4.8 13.8.5 2.1 0 3.7-1 4.8l-9.6 11.1-14.4 16.5c-3.7 4.8-3.7 4.8-9.5 3.2l-1-.5a46.5 46.5 0 0 0-36.7 3.7c-8 4.2-15 9-22.9 12.2-1 .5-2.1.5-1.6 2.1 0 1.1 1 1.6 2.1 1.6l2.2.6c7.4 1 14.8 1 22.8 1.6 6.4.5 13.3-.6 19.7-3.2 4.8-1.6 9.5-3.2 14.3-5.9h1.6c1 .6.5 1 .5 2.1l-1.6 5.4c-.5 8.5 1.1 16.4 3.2 24.4l8.5 22.3c.6 1 1 2.1 2.7 2.1 1.6 0 1.6-1 2.1-2l5.3-16.6c2.1-7.4 2.1-14.3.6-21.7-1.6-8.5-6.4-16-11.2-22.9-1-1-1-2.1 0-3.2l21.8-25c2.1-3.1 4.2-4.2 8.5-3.7 6.9.6 11.7 3.2 16.4 7.5a98.6 98.6 0 0 1 24 27.6c1 1.6 1 2.7.5 4.3a25.6 25.6 0 0 1-10.6 10.6 91.8 91.8 0 0 0-16 8.5 23.2 23.2 0 0 0-8.5 9c-2.6 5.9-1 11.2 3.7 14.4 4.8 3.1 13.9 2 18.1-2.2 1.6-1.6 2.7-4.2 2.7-6.9 0-2.1-1.1-3.2-3.2-3.2-1.6-.5-3.2.6-3.7 2.7 0 3.7-2.7 5.3-5.9 5.8-4.8 0-7.4-3.7-5.3-8 2.7-5.2 7-7.9 11.7-10.6 4.8-2.6 10-4.7 14.9-8.5.5-.5 1.6-1.6 2.6-1 1 .5.6 1.6.6 2.6v46.8a18 18 0 0 1-14.4 17 31.4 31.4 0 0 0-22.8 14.3c-5.4 7.5-11.2 13.3-20.8 13.8-1 .6-2 .6-2 2.2 0 1 1 1 2 1.6a35.7 35.7 0 0 0 22.4 1c2.6-1 3.1-.5 2.6 2.7v5.3c1.6 8 7 12.7 13.3 16 8.5 4.7 16 10 19.1 19.6a4 4 0 0 0 3.7 2.6c1.6 0 3.2-.5 3.8-2l1.5-3.8c2.7-4.8 5.9-8.5 10.1-11.7L538 564c6.4-4.8 10.7-10.6 9.6-19.6-.5-2.2.5-2.7 2.6-2.2h1.1a35.9 35.9 0 0 0 22.3-1.6c.6 0 1.6-.5 1-1.6l-1-1-1.6-.6c-7.4-1-12.7-4.2-17-10l-5.8-8a33 33 0 0 0-20.2-10.6c-7.4-1.1-13.8-9-13.8-16V445c0-.5 0-1.6 1-2.1 1.1-.6 1.6.5 2.2 1l1.6 1.1c4.2 3.2 9.5 4.8 13.8 8 4.2 2.6 9 4.8 11.1 10 1.1 1.7 1.6 3.8.6 5.4a8.5 8.5 0 0 1-5.9 2.6c-3.7-.5-4.8-1.6-5.8-5.8-.5-2.1-1.6-3.2-3.7-2.7-2.2 0-3.2 1.6-2.7 3.8 0 1.6 0 3.7 1.6 5.3 3.2 4.2 12.2 6.3 17 4.2 5.3-2.6 7.4-7.4 6.4-11.7-.6-3.2-2.1-5.8-4.3-8.5-4.2-4.8-10-8-16-10.6-5.2-2.1-10-4.8-13.7-10-2.7-3.8-2.7-4.9-.6-8.6 6.4-9.6 13.3-18.6 22.4-26 4.7-3.7 10-7.5 17-7.5 1 .6 2 0 3.1-.5 1.6-.5 2.7 0 3.2 1l24.5 28.8c1 .5 1 1.6 0 2.6-4.3 5.9-8 12.2-10.7 19.7a51.3 51.3 0 0 0-1.5 20.2c1 7.4 4.7 14.3 6.3 21.7.6 1.1 1 1.6 2.1 1.6a3 3 0 0 0 2.7-1.6l9-24.4a64.3 64.3 0 0 0 2.7-22.3l-1-6.4.5-2.1 1 .5 11.2 4.8c4.2 1.6 8 3.2 12.2 3.7 9.6 1.6 19.1 0 28.2-.5l7.4-1c1 0 2.6-.6 2.6-1.7 0-1.6-1-2-2-2-8-3.3-14.4-8-21.9-11.8a47.5 47.5 0 0 0-41.4-3.2c-1.6.6-2.6.6-3.7-.5l-7.5-8.5-17-19.6c-3.1-3.8-4.7-7.5-2.6-12.3a71 71 0 0 1 26.6-34.5c.5-.5 1.5-1.6 1.5-2.7.6-2 2.2-2.6 3.8-2.6a23655 23655 0 0 0 67.4 1c8 5.4 15 11.2 19.7 19.2 4.2 8 5.8 15.4 2.1 23.4-2.6 4.7-8.5 8.4-13.3 8a28 28 0 0 1-15.4-7.5c-2-2.7-3.2-5.9-1.6-8.5 1.6-3.7 4.3-5.3 8-4.8 1.6.5 3.2.5 3.7-1.6.6-2.1-1-3.2-2.6-3.7-3.2-.5-6.4 0-9 1.6a13.6 13.6 0 0 0-2.2 21.2c4.3 3.2 8.5 5.3 13.3 7 9 3.1 19.1-.6 23.9-9 1-2.8 2.7-3.8 5.8-3.8 6.4-1 11.7-3.7 15-9.6l2.6-2.1c5.3-2.1 9.5-6.4 9.5-12.2 0-4.3 2.2-5.3 5.9-7.5l19.1-10.6c1.6-1 3.2-1.6 3.2-3.7s-1.6-3.2-3.2-3.7"/></g></svg>